<svg xmlns="http://www.w3.org/2000/svg" width="1180" height="610" viewBox="0 0 1180 610" font-family="ui-monospace,SFMono-Regular,Menlo,Consolas,'Liberation Mono',monospace" role="img" aria-label="Nikhil Krishna R D — AI &amp; Data Systems Engineer">
<defs>
<linearGradient id="light_panelGrad" x1="0" y1="0" x2="0" y2="1">
  <stop offset="0" stop-color="#FAFAFA"/>
  <stop offset="1" stop-color="#FFFFFF"/>
</linearGradient>
<clipPath id="light_winClip"><rect x="2" y="2" width="1176" height="606" rx="16"/></clipPath>
</defs>
<rect x="2" y="2" width="1176" height="606" rx="16" fill="#FAFAFA"/>
<g clip-path="url(#light_winClip)">
<rect x="2" y="2" width="1176" height="606" fill="url(#light_panelGrad)"/>
<rect x="2" y="2" width="1176" height="46" fill="#F4F4F5"/>
<line x1="2" y1="48" x2="1178" y2="48" stroke="rgba(0,0,0,0.08)"/>
<circle cx="30" cy="25" r="5" fill="#71717A"/>
<circle cx="48" cy="25" r="5" fill="#A1A1AA"/>
<circle cx="66" cy="25" r="5" fill="#059669"/>
<text x="590" y="29" text-anchor="middle" font-size="12" fill="#71717A">rdnk2004 — % ./system.sh --status</text>
<text x="38" y="74" font-size="10" letter-spacing="2.5" fill="#71717A">SYSTEM.MAP</text>
<rect x="36" y="84" width="400" height="492" rx="8" fill="#FAFAFA" stroke="#E4E4E7" stroke-width="1.2"/>
<path d="M 50 84 L 36 84 L 36 98" fill="none" stroke="#3F3F46" stroke-width="1.8" opacity="0.75"/>
<path d="M 422 84 L 436 84 L 436 98" fill="none" stroke="#3F3F46" stroke-width="1.8" opacity="0.75"/>
<path d="M 50 576 L 36 576 L 36 562" fill="none" stroke="#3F3F46" stroke-width="1.8" opacity="0.75"/>
<path d="M 422 576 L 436 576 L 436 562" fill="none" stroke="#3F3F46" stroke-width="1.8" opacity="0.75"/>
<g transform="translate(48.0,128.8) scale(1.8800)" fill="#27272A" shape-rendering="crispEdges">
<path d="M105 8h2v1h-2zM108 8h1v1h-1zM92 9h1v1h-1zM94 9h2v1h-2zM97 9h1v1h-1zM99 9h1v1h-1zM101 9h1v1h-1zM103 9h1v1h-1zM105 9h1v1h-1zM107 9h1v1h-1zM109 9h3v1h-3zM87 10h1v1h-1zM89 10h3v1h-3zM93 10h1v1h-1zM95 10h1v1h-1zM97 10h1v1h-1zM100 10h2v1h-2zM103 10h2v1h-2zM106 10h4v1h-4zM111 10h1v1h-1zM85 11h2v1h-2zM88 11h2v1h-2zM91 11h3v1h-3zM95 11h1v1h-1zM97 11h1v1h-1zM99 11h1v1h-1zM101 11h2v1h-2zM104 11h2v1h-2zM107 11h8v1h-8zM83 12h2v1h-2zM86 12h2v1h-2zM90 12h1v1h-1zM92 12h1v1h-1zM94 12h6v1h-6zM101 12h1v1h-1zM103 12h4v1h-4zM108 12h6v1h-6zM115 12h1v1h-1zM81 13h3v1h-3zM85 13h1v1h-1zM87 13h5v1h-5zM93 13h9v1h-9zM103 13h1v1h-1zM105 13h3v1h-3zM111 13h4v1h-4zM116 13h1v1h-1zM80 14h1v1h-1zM82 14h1v1h-1zM84 14h5v1h-5zM92 14h2v1h-2zM95 14h2v1h-2zM98 14h5v1h-5zM104 14h2v1h-2zM107 14h5v1h-5zM113 14h5v1h-5zM79 15h1v1h-1zM81 15h5v1h-5zM87 15h1v1h-1zM89 15h4v1h-4zM94 15h2v1h-2zM97 15h2v1h-2zM100 15h3v1h-3zM105 15h1v1h-1zM107 15h1v1h-1zM109 15h2v1h-2zM112 15h3v1h-3zM116 15h1v1h-1zM118 15h2v1h-2zM77 16h1v1h-1zM79 16h4v1h-4zM84 16h2v1h-2zM87 16h1v1h-1zM89 16h2v1h-2zM92 16h2v1h-2zM95 16h12v1h-12zM109 16h10v1h-10zM120 16h2v1h-2zM77 17h2v1h-2zM80 17h1v1h-1zM82 17h4v1h-4zM87 17h1v1h-1zM89 17h1v1h-1zM91 17h5v1h-5zM97 17h12v1h-12zM111 17h1v1h-1zM113 17h11v1h-11zM74 18h1v1h-1zM76 18h11v1h-11zM88 18h1v1h-1zM90 18h2v1h-2zM94 18h4v1h-4zM99 18h11v1h-11zM112 18h5v1h-5zM118 18h1v1h-1zM121 18h2v1h-2zM124 18h3v1h-3zM74 19h11v1h-11zM86 19h5v1h-5zM92 19h2v1h-2zM96 19h3v1h-3zM102 19h1v1h-1zM104 19h8v1h-8zM114 19h1v1h-1zM116 19h10v1h-10zM127 19h1v1h-1zM72 20h8v1h-8zM82 20h1v1h-1zM84 20h6v1h-6zM91 20h2v1h-2zM98 20h1v1h-1zM101 20h1v1h-1zM103 20h1v1h-1zM105 20h5v1h-5zM111 20h2v1h-2zM114 20h15v1h-15zM71 21h1v1h-1zM73 21h1v1h-1zM76 21h1v1h-1zM78 21h1v1h-1zM81 21h4v1h-4zM86 21h1v1h-1zM88 21h1v1h-1zM90 21h8v1h-8zM99 21h5v1h-5zM105 21h1v1h-1zM107 21h7v1h-7zM116 21h1v1h-1zM118 21h6v1h-6zM125 21h5v1h-5zM71 22h7v1h-7zM79 22h8v1h-8zM92 22h9v1h-9zM103 22h2v1h-2zM106 22h1v1h-1zM108 22h6v1h-6zM115 22h4v1h-4zM120 22h7v1h-7zM128 22h1v1h-1zM130 22h1v1h-1zM70 23h1v1h-1zM73 23h3v1h-3zM77 23h1v1h-1zM79 23h1v1h-1zM81 23h1v1h-1zM83 23h8v1h-8zM93 23h11v1h-11zM105 23h1v1h-1zM109 23h6v1h-6zM118 23h14v1h-14zM69 24h1v1h-1zM71 24h4v1h-4zM76 24h1v1h-1zM78 24h15v1h-15zM95 24h4v1h-4zM100 24h8v1h-8zM110 24h3v1h-3zM114 24h3v1h-3zM119 24h10v1h-10zM130 24h3v1h-3zM68 25h2v1h-2zM71 25h8v1h-8zM80 25h1v1h-1zM84 25h11v1h-11zM97 25h5v1h-5zM104 25h1v1h-1zM107 25h3v1h-3zM111 25h7v1h-7zM119 25h13v1h-13zM133 25h1v1h-1zM67 26h1v1h-1zM69 26h12v1h-12zM83 26h1v1h-1zM86 26h12v1h-12zM99 26h4v1h-4zM104 26h6v1h-6zM112 26h5v1h-5zM118 26h16v1h-16zM67 27h6v1h-6zM74 27h4v1h-4zM81 27h13v1h-13zM95 27h6v1h-6zM102 27h9v1h-9zM112 27h7v1h-7zM120 27h15v1h-15zM66 28h1v1h-1zM68 28h3v1h-3zM72 28h2v1h-2zM75 28h1v1h-1zM77 28h1v1h-1zM79 28h2v1h-2zM82 28h10v1h-10zM93 28h10v1h-10zM104 28h30v1h-30zM135 28h1v1h-1zM65 29h1v1h-1zM67 29h10v1h-10zM80 29h8v1h-8zM93 29h12v1h-12zM107 29h6v1h-6zM114 29h7v1h-7zM122 29h10v1h-10zM133 29h4v1h-4zM65 30h9v1h-9zM76 30h3v1h-3zM80 30h1v1h-1zM82 30h1v1h-1zM84 30h2v1h-2zM89 30h29v1h-29zM119 30h5v1h-5zM125 30h10v1h-10zM136 30h2v1h-2zM64 31h1v1h-1zM66 31h10v1h-10zM78 31h6v1h-6zM87 31h7v1h-7zM97 31h3v1h-3zM101 31h1v1h-1zM103 31h3v1h-3zM107 31h30v1h-30zM64 32h5v1h-5zM70 32h9v1h-9zM81 32h10v1h-10zM93 32h5v1h-5zM99 32h4v1h-4zM104 32h3v1h-3zM109 32h20v1h-20zM130 32h3v1h-3zM134 32h5v1h-5zM64 33h26v1h-26zM91 33h4v1h-4zM98 33h11v1h-11zM110 33h29v1h-29zM63 34h9v1h-9zM75 34h19v1h-19zM95 34h3v1h-3zM99 34h31v1h-31zM131 34h8v1h-8zM64 35h2v1h-2zM67 35h3v1h-3zM71 35h1v1h-1zM74 35h23v1h-23zM98 35h2v1h-2zM101 35h1v1h-1zM103 35h2v1h-2zM106 35h23v1h-23zM130 35h5v1h-5zM136 35h1v1h-1zM138 35h3v1h-3zM63 36h9v1h-9zM73 36h21v1h-21zM95 36h1v1h-1zM97 36h1v1h-1zM100 36h1v1h-1zM102 36h1v1h-1zM105 36h1v1h-1zM107 36h1v1h-1zM109 36h1v1h-1zM111 36h1v1h-1zM113 36h23v1h-23zM137 36h3v1h-3zM62 37h2v1h-2zM65 37h21v1h-21zM87 37h1v1h-1zM89 37h4v1h-4zM94 37h1v1h-1zM96 37h1v1h-1zM98 37h1v1h-1zM100 37h1v1h-1zM103 37h1v1h-1zM105 37h1v1h-1zM108 37h1v1h-1zM112 37h1v1h-1zM116 37h1v1h-1zM118 37h1v1h-1zM120 37h1v1h-1zM122 37h15v1h-15zM139 37h1v1h-1zM141 37h1v1h-1zM62 38h22v1h-22zM86 38h4v1h-4zM91 38h1v1h-1zM111 38h1v1h-1zM114 38h1v1h-1zM117 38h2v1h-2zM120 38h9v1h-9zM130 38h2v1h-2zM133 38h1v1h-1zM135 38h2v1h-2zM138 38h3v1h-3zM63 39h15v1h-15zM79 39h1v1h-1zM81 39h1v1h-1zM84 39h1v1h-1zM86 39h2v1h-2zM89 39h2v1h-2zM92 39h1v1h-1zM94 39h1v1h-1zM96 39h1v1h-1zM98 39h1v1h-1zM100 39h1v1h-1zM102 39h1v1h-1zM118 39h1v1h-1zM120 39h1v1h-1zM123 39h15v1h-15zM139 39h1v1h-1zM141 39h1v1h-1zM61 40h3v1h-3zM65 40h4v1h-4zM70 40h5v1h-5zM76 40h3v1h-3zM87 40h3v1h-3zM91 40h1v1h-1zM104 40h1v1h-1zM109 40h1v1h-1zM119 40h10v1h-10zM130 40h2v1h-2zM133 40h1v1h-1zM135 40h4v1h-4zM140 40h2v1h-2zM62 41h5v1h-5zM68 41h8v1h-8zM77 41h1v1h-1zM79 41h2v1h-2zM86 41h1v1h-1zM88 41h1v1h-1zM94 41h1v1h-1zM96 41h1v1h-1zM106 41h1v1h-1zM110 41h1v1h-1zM113 41h1v1h-1zM122 41h2v1h-2zM125 41h1v1h-1zM127 41h14v1h-14zM142 41h1v1h-1zM61 42h13v1h-13zM75 42h1v1h-1zM81 42h1v1h-1zM83 42h3v1h-3zM99 42h1v1h-1zM102 42h1v1h-1zM121 42h1v1h-1zM123 42h10v1h-10zM135 42h4v1h-4zM140 42h1v1h-1zM142 42h1v1h-1zM62 43h2v1h-2zM65 43h8v1h-8zM74 43h1v1h-1zM76 43h1v1h-1zM78 43h1v1h-1zM111 43h1v1h-1zM116 43h1v1h-1zM118 43h1v1h-1zM121 43h1v1h-1zM123 43h1v1h-1zM125 43h5v1h-5zM131 43h3v1h-3zM135 43h4v1h-4zM140 43h1v1h-1zM142 43h1v1h-1zM61 44h12v1h-12zM114 44h1v1h-1zM122 44h1v1h-1zM124 44h3v1h-3zM128 44h2v1h-2zM131 44h9v1h-9zM141 44h1v1h-1zM62 45h10v1h-10zM73 45h1v1h-1zM76 45h1v1h-1zM123 45h7v1h-7zM131 45h9v1h-9zM141 45h1v1h-1zM61 46h2v1h-2zM64 46h8v1h-8zM112 46h1v1h-1zM123 46h14v1h-14zM138 46h3v1h-3zM61 47h3v1h-3zM65 47h7v1h-7zM74 47h1v1h-1zM114 47h1v1h-1zM117 47h1v1h-1zM123 47h1v1h-1zM125 47h5v1h-5zM131 47h9v1h-9zM141 47h1v1h-1zM60 48h12v1h-12zM122 48h1v1h-1zM124 48h17v1h-17zM61 49h1v1h-1zM63 49h8v1h-8zM123 49h2v1h-2zM126 49h14v1h-14zM141 49h1v1h-1zM61 50h10v1h-10zM76 50h1v1h-1zM78 50h1v1h-1zM80 50h1v1h-1zM82 50h1v1h-1zM84 50h1v1h-1zM86 50h1v1h-1zM116 50h1v1h-1zM119 50h1v1h-1zM122 50h17v1h-17zM140 50h2v1h-2zM61 51h3v1h-3zM65 51h6v1h-6zM75 51h13v1h-13zM123 51h17v1h-17zM141 51h1v1h-1zM61 52h9v1h-9zM74 52h1v1h-1zM76 52h1v1h-1zM78 52h11v1h-11zM90 52h1v1h-1zM102 52h8v1h-8zM111 52h1v1h-1zM122 52h15v1h-15zM138 52h1v1h-1zM140 52h2v1h-2zM61 53h6v1h-6zM68 53h7v1h-7zM76 53h1v1h-1zM78 53h1v1h-1zM80 53h1v1h-1zM82 53h8v1h-8zM99 53h16v1h-16zM123 53h7v1h-7zM131 53h11v1h-11zM61 54h5v1h-5zM69 54h2v1h-2zM87 54h4v1h-4zM92 54h1v1h-1zM95 54h1v1h-1zM98 54h19v1h-19zM122 54h13v1h-13zM136 54h3v1h-3zM140 54h1v1h-1zM62 55h5v1h-5zM69 55h1v1h-1zM75 55h1v1h-1zM89 55h14v1h-14zM105 55h1v1h-1zM107 55h1v1h-1zM109 55h1v1h-1zM114 55h4v1h-4zM123 55h18v1h-18zM61 56h4v1h-4zM67 56h3v1h-3zM76 56h1v1h-1zM82 56h3v1h-3zM86 56h1v1h-1zM90 56h10v1h-10zM106 56h1v1h-1zM108 56h1v1h-1zM110 56h4v1h-4zM117 56h4v1h-4zM123 56h15v1h-15zM140 56h1v1h-1zM61 57h4v1h-4zM67 57h3v1h-3zM75 57h1v1h-1zM78 57h5v1h-5zM84 57h3v1h-3zM90 57h10v1h-10zM103 57h2v1h-2zM106 57h1v1h-1zM118 57h4v1h-4zM125 57h16v1h-16zM61 58h8v1h-8zM74 58h1v1h-1zM76 58h8v1h-8zM85 58h1v1h-1zM87 58h1v1h-1zM90 58h3v1h-3zM96 58h3v1h-3zM101 58h1v1h-1zM103 58h3v1h-3zM114 58h1v1h-1zM117 58h1v1h-1zM119 58h2v1h-2zM124 58h12v1h-12zM137 58h2v1h-2zM140 58h1v1h-1zM62 59h8v1h-8zM74 59h3v1h-3zM79 59h5v1h-5zM85 59h2v1h-2zM90 59h3v1h-3zM96 59h3v1h-3zM103 59h1v1h-1zM105 59h1v1h-1zM107 59h1v1h-1zM110 59h1v1h-1zM112 59h1v1h-1zM120 59h5v1h-5zM126 59h14v1h-14zM62 60h7v1h-7zM73 60h1v1h-1zM75 60h2v1h-2zM80 60h3v1h-3zM84 60h1v1h-1zM90 60h3v1h-3zM97 60h2v1h-2zM101 60h3v1h-3zM105 60h6v1h-6zM113 60h2v1h-2zM120 60h3v1h-3zM126 60h11v1h-11zM138 60h1v1h-1zM62 61h7v1h-7zM74 61h1v1h-1zM78 61h1v1h-1zM84 61h1v1h-1zM87 61h1v1h-1zM90 61h2v1h-2zM97 61h2v1h-2zM102 61h2v1h-2zM106 61h4v1h-4zM111 61h3v1h-3zM115 61h1v1h-1zM120 61h2v1h-2zM126 61h5v1h-5zM132 61h7v1h-7zM62 62h7v1h-7zM76 62h1v1h-1zM78 62h1v1h-1zM80 62h3v1h-3zM84 62h1v1h-1zM90 62h2v1h-2zM97 62h2v1h-2zM103 62h1v1h-1zM105 62h5v1h-5zM112 62h3v1h-3zM120 62h2v1h-2zM124 62h12v1h-12zM137 62h2v1h-2zM64 63h4v1h-4zM69 63h1v1h-1zM76 63h1v1h-1zM78 63h1v1h-1zM80 63h1v1h-1zM89 63h3v1h-3zM97 63h3v1h-3zM104 63h1v1h-1zM108 63h1v1h-1zM113 63h2v1h-2zM116 63h1v1h-1zM120 63h1v1h-1zM125 63h14v1h-14zM65 64h3v1h-3zM69 64h1v1h-1zM89 64h2v1h-2zM98 64h1v1h-1zM102 64h1v1h-1zM105 64h2v1h-2zM110 64h1v1h-1zM112 64h1v1h-1zM114 64h1v1h-1zM120 64h1v1h-1zM124 64h8v1h-8zM133 64h4v1h-4zM65 65h3v1h-3zM69 65h2v1h-2zM75 65h1v1h-1zM88 65h3v1h-3zM98 65h2v1h-2zM107 65h2v1h-2zM110 65h1v1h-1zM112 65h1v1h-1zM119 65h2v1h-2zM125 65h13v1h-13zM62 66h1v1h-1zM64 66h3v1h-3zM70 66h1v1h-1zM73 66h1v1h-1zM88 66h2v1h-2zM98 66h2v1h-2zM104 66h1v1h-1zM106 66h1v1h-1zM108 66h1v1h-1zM110 66h1v1h-1zM112 66h1v1h-1zM119 66h1v1h-1zM124 66h13v1h-13zM61 67h1v1h-1zM64 67h4v1h-4zM70 67h1v1h-1zM87 67h2v1h-2zM99 67h1v1h-1zM119 67h1v1h-1zM125 67h11v1h-11zM62 68h1v1h-1zM64 68h3v1h-3zM71 68h1v1h-1zM86 68h3v1h-3zM99 68h2v1h-2zM116 68h1v1h-1zM118 68h2v1h-2zM124 68h3v1h-3zM128 68h4v1h-4zM61 69h1v1h-1zM65 69h3v1h-3zM72 69h2v1h-2zM85 69h2v1h-2zM100 69h1v1h-1zM103 69h1v1h-1zM118 69h1v1h-1zM125 69h4v1h-4zM130 69h2v1h-2zM134 69h1v1h-1zM62 70h1v1h-1zM65 70h2v1h-2zM73 70h4v1h-4zM78 70h1v1h-1zM83 70h3v1h-3zM101 70h1v1h-1zM117 70h1v1h-1zM124 70h5v1h-5zM62 71h1v1h-1zM66 71h2v1h-2zM76 71h8v1h-8zM102 71h2v1h-2zM116 71h2v1h-2zM124 71h4v1h-4zM132 71h1v1h-1zM134 71h2v1h-2zM66 72h2v1h-2zM103 72h5v1h-5zM109 72h1v1h-1zM111 72h5v1h-5zM124 72h3v1h-3zM134 72h1v1h-1zM66 73h2v1h-2zM84 73h1v1h-1zM88 73h3v1h-3zM104 73h1v1h-1zM106 73h8v1h-8zM120 73h1v1h-1zM124 73h3v1h-3zM132 73h1v1h-1zM134 73h1v1h-1zM66 74h2v1h-2zM80 74h1v1h-1zM82 74h1v1h-1zM85 74h6v1h-6zM97 74h4v1h-4zM123 74h5v1h-5zM132 74h2v1h-2zM66 75h2v1h-2zM78 75h1v1h-1zM81 75h1v1h-1zM86 75h1v1h-1zM88 75h1v1h-1zM90 75h2v1h-2zM96 75h6v1h-6zM103 75h1v1h-1zM105 75h1v1h-1zM124 75h3v1h-3zM133 75h1v1h-1zM67 76h1v1h-1zM79 76h2v1h-2zM82 76h1v1h-1zM88 76h1v1h-1zM91 76h1v1h-1zM96 76h1v1h-1zM101 76h2v1h-2zM107 76h1v1h-1zM122 76h4v1h-4zM127 76h1v1h-1zM129 76h1v1h-1zM132 76h1v1h-1zM72 77h1v1h-1zM77 77h1v1h-1zM80 77h1v1h-1zM92 77h2v1h-2zM95 77h1v1h-1zM101 77h1v1h-1zM103 77h1v1h-1zM106 77h1v1h-1zM123 77h2v1h-2zM127 77h1v1h-1zM129 77h1v1h-1zM66 78h2v1h-2zM78 78h2v1h-2zM87 78h1v1h-1zM93 78h2v1h-2zM107 78h2v1h-2zM120 78h1v1h-1zM123 78h3v1h-3zM128 78h1v1h-1zM67 79h1v1h-1zM69 79h1v1h-1zM71 79h1v1h-1zM75 79h1v1h-1zM77 79h1v1h-1zM86 79h3v1h-3zM90 79h3v1h-3zM95 79h5v1h-5zM105 79h1v1h-1zM108 79h1v1h-1zM110 79h1v1h-1zM122 79h3v1h-3zM78 80h1v1h-1zM80 80h1v1h-1zM82 80h3v1h-3zM86 80h1v1h-1zM88 80h2v1h-2zM91 80h1v1h-1zM94 80h3v1h-3zM98 80h4v1h-4zM103 80h1v1h-1zM108 80h2v1h-2zM113 80h1v1h-1zM116 80h1v1h-1zM122 80h2v1h-2zM127 80h1v1h-1zM65 81h1v1h-1zM68 81h1v1h-1zM70 81h1v1h-1zM73 81h1v1h-1zM76 81h1v1h-1zM78 81h5v1h-5zM84 81h1v1h-1zM86 81h1v1h-1zM97 81h1v1h-1zM99 81h3v1h-3zM103 81h1v1h-1zM105 81h1v1h-1zM109 81h1v1h-1zM111 81h1v1h-1zM122 81h2v1h-2zM126 81h1v1h-1zM77 82h4v1h-4zM82 82h1v1h-1zM86 82h1v1h-1zM99 82h1v1h-1zM101 82h2v1h-2zM104 82h1v1h-1zM106 82h2v1h-2zM109 82h2v1h-2zM113 82h1v1h-1zM115 82h1v1h-1zM118 82h1v1h-1zM122 82h1v1h-1zM128 82h1v1h-1zM68 83h1v1h-1zM70 83h1v1h-1zM73 83h1v1h-1zM77 83h4v1h-4zM85 83h1v1h-1zM87 83h1v1h-1zM94 83h1v1h-1zM97 83h1v1h-1zM100 83h1v1h-1zM106 83h6v1h-6zM120 83h1v1h-1zM122 83h1v1h-1zM128 83h1v1h-1zM71 84h1v1h-1zM77 84h3v1h-3zM81 84h3v1h-3zM85 84h1v1h-1zM87 84h4v1h-4zM92 84h1v1h-1zM101 84h2v1h-2zM105 84h1v1h-1zM108 84h4v1h-4zM115 84h1v1h-1zM117 84h1v1h-1zM122 84h1v1h-1zM69 85h1v1h-1zM77 85h2v1h-2zM80 85h8v1h-8zM89 85h1v1h-1zM92 85h7v1h-7zM100 85h1v1h-1zM103 85h1v1h-1zM106 85h1v1h-1zM108 85h1v1h-1zM110 85h2v1h-2zM113 85h1v1h-1zM119 85h1v1h-1zM121 85h1v1h-1zM68 86h1v1h-1zM71 86h1v1h-1zM73 86h1v1h-1zM78 86h1v1h-1zM83 86h1v1h-1zM99 86h13v1h-13zM115 86h1v1h-1zM121 86h1v1h-1zM76 87h1v1h-1zM79 87h1v1h-1zM103 87h3v1h-3zM110 87h1v1h-1zM118 87h1v1h-1zM121 87h1v1h-1zM70 88h1v1h-1zM72 88h1v1h-1zM74 88h1v1h-1zM79 88h1v1h-1zM87 88h1v1h-1zM101 88h1v1h-1zM109 88h1v1h-1zM113 88h1v1h-1zM115 88h1v1h-1zM121 88h2v1h-2zM77 89h1v1h-1zM89 89h1v1h-1zM91 89h1v1h-1zM93 89h1v1h-1zM95 89h1v1h-1zM97 89h1v1h-1zM99 89h1v1h-1zM110 89h1v1h-1zM117 89h1v1h-1zM121 89h4v1h-4zM73 90h1v1h-1zM75 90h1v1h-1zM79 90h1v1h-1zM92 90h1v1h-1zM108 90h1v1h-1zM112 90h1v1h-1zM114 90h1v1h-1zM121 90h4v1h-4zM71 91h1v1h-1zM78 91h1v1h-1zM84 91h1v1h-1zM90 91h1v1h-1zM92 91h1v1h-1zM94 91h1v1h-1zM96 91h1v1h-1zM111 91h1v1h-1zM116 91h1v1h-1zM118 91h1v1h-1zM121 91h4v1h-4zM74 92h1v1h-1zM76 92h1v1h-1zM80 92h1v1h-1zM86 92h1v1h-1zM91 92h1v1h-1zM93 92h1v1h-1zM95 92h1v1h-1zM107 92h1v1h-1zM109 92h1v1h-1zM112 92h1v1h-1zM115 92h1v1h-1zM120 92h4v1h-4zM72 93h1v1h-1zM77 93h1v1h-1zM79 93h1v1h-1zM87 93h1v1h-1zM89 93h1v1h-1zM91 93h1v1h-1zM94 93h1v1h-1zM96 93h1v1h-1zM98 93h1v1h-1zM100 93h1v1h-1zM102 93h1v1h-1zM108 93h1v1h-1zM111 93h1v1h-1zM114 93h1v1h-1zM118 93h1v1h-1zM121 93h3v1h-3zM75 94h1v1h-1zM81 94h1v1h-1zM90 94h1v1h-1zM93 94h1v1h-1zM97 94h1v1h-1zM104 94h1v1h-1zM109 94h1v1h-1zM113 94h1v1h-1zM116 94h1v1h-1zM121 94h3v1h-3zM73 95h1v1h-1zM77 95h1v1h-1zM79 95h1v1h-1zM85 95h1v1h-1zM88 95h1v1h-1zM92 95h1v1h-1zM95 95h1v1h-1zM101 95h1v1h-1zM107 95h1v1h-1zM110 95h1v1h-1zM112 95h1v1h-1zM115 95h1v1h-1zM118 95h1v1h-1zM121 95h2v1h-2zM78 96h1v1h-1zM83 96h1v1h-1zM90 96h1v1h-1zM92 96h1v1h-1zM94 96h1v1h-1zM97 96h1v1h-1zM99 96h1v1h-1zM103 96h1v1h-1zM106 96h1v1h-1zM109 96h1v1h-1zM114 96h1v1h-1zM116 96h1v1h-1zM121 96h2v1h-2zM74 97h1v1h-1zM76 97h1v1h-1zM80 97h1v1h-1zM93 97h1v1h-1zM96 97h1v1h-1zM108 97h1v1h-1zM112 97h1v1h-1zM115 97h1v1h-1zM117 97h1v1h-1zM121 97h2v1h-2zM74 98h1v1h-1zM77 98h1v1h-1zM79 98h1v1h-1zM91 98h1v1h-1zM99 98h1v1h-1zM102 98h1v1h-1zM105 98h1v1h-1zM107 98h1v1h-1zM110 98h1v1h-1zM113 98h1v1h-1zM115 98h1v1h-1zM121 98h2v1h-2zM75 99h1v1h-1zM77 99h1v1h-1zM81 99h1v1h-1zM87 99h1v1h-1zM108 99h1v1h-1zM112 99h1v1h-1zM114 99h1v1h-1zM116 99h1v1h-1zM121 99h1v1h-1zM78 100h1v1h-1zM85 100h1v1h-1zM93 100h1v1h-1zM102 100h1v1h-1zM105 100h1v1h-1zM110 100h1v1h-1zM113 100h1v1h-1zM115 100h1v1h-1zM78 101h2v1h-2zM81 101h1v1h-1zM91 101h1v1h-1zM97 101h1v1h-1zM107 101h1v1h-1zM109 101h1v1h-1zM111 101h2v1h-2zM114 101h1v1h-1zM78 102h1v1h-1zM80 102h1v1h-1zM86 102h1v1h-1zM88 102h1v1h-1zM93 102h1v1h-1zM95 102h1v1h-1zM99 102h1v1h-1zM103 102h1v1h-1zM105 102h1v1h-1zM110 102h1v1h-1zM112 102h1v1h-1zM114 102h1v1h-1zM79 103h1v1h-1zM81 103h2v1h-2zM84 103h1v1h-1zM91 103h1v1h-1zM97 103h1v1h-1zM100 103h1v1h-1zM102 103h1v1h-1zM106 103h1v1h-1zM108 103h2v1h-2zM111 103h1v1h-1zM113 103h1v1h-1zM117 103h1v1h-1zM121 103h1v1h-1zM78 104h1v1h-1zM80 104h1v1h-1zM82 104h1v1h-1zM84 104h1v1h-1zM86 104h1v1h-1zM88 104h1v1h-1zM90 104h1v1h-1zM93 104h1v1h-1zM95 104h1v1h-1zM99 104h1v1h-1zM103 104h1v1h-1zM105 104h1v1h-1zM107 104h1v1h-1zM109 104h1v1h-1zM111 104h1v1h-1zM115 104h1v1h-1zM119 104h1v1h-1zM76 105h1v1h-1zM81 105h1v1h-1zM83 105h1v1h-1zM85 105h1v1h-1zM87 105h1v1h-1zM89 105h1v1h-1zM91 105h1v1h-1zM93 105h1v1h-1zM95 105h1v1h-1zM97 105h2v1h-2zM101 105h1v1h-1zM103 105h1v1h-1zM106 105h1v1h-1zM108 105h1v1h-1zM110 105h1v1h-1zM113 105h1v1h-1zM78 106h1v1h-1zM80 106h1v1h-1zM82 106h1v1h-1zM85 106h1v1h-1zM87 106h1v1h-1zM90 106h1v1h-1zM92 106h1v1h-1zM94 106h1v1h-1zM96 106h1v1h-1zM99 106h1v1h-1zM102 106h1v1h-1zM104 106h1v1h-1zM106 106h1v1h-1zM108 106h1v1h-1zM110 106h1v1h-1zM112 106h1v1h-1zM115 106h1v1h-1zM118 106h1v1h-1zM120 106h1v1h-1zM82 107h1v1h-1zM84 107h1v1h-1zM86 107h1v1h-1zM89 107h1v1h-1zM91 107h1v1h-1zM93 107h1v1h-1zM96 107h1v1h-1zM98 107h1v1h-1zM100 107h2v1h-2zM103 107h1v1h-1zM105 107h1v1h-1zM107 107h1v1h-1zM109 107h1v1h-1zM77 108h1v1h-1zM80 108h1v1h-1zM83 108h1v1h-1zM85 108h1v1h-1zM87 108h1v1h-1zM90 108h1v1h-1zM93 108h1v1h-1zM95 108h1v1h-1zM97 108h1v1h-1zM99 108h1v1h-1zM102 108h1v1h-1zM104 108h1v1h-1zM106 108h1v1h-1zM108 108h1v1h-1zM111 108h1v1h-1zM113 108h1v1h-1zM116 108h1v1h-1zM119 108h1v1h-1zM124 108h1v1h-1zM76 109h1v1h-1zM82 109h1v1h-1zM85 109h1v1h-1zM87 109h1v1h-1zM89 109h1v1h-1zM92 109h1v1h-1zM94 109h1v1h-1zM96 109h1v1h-1zM98 109h1v1h-1zM100 109h1v1h-1zM102 109h1v1h-1zM104 109h1v1h-1zM106 109h1v1h-1zM109 109h1v1h-1zM121 109h1v1h-1zM124 109h2v1h-2zM73 110h1v1h-1zM77 110h1v1h-1zM80 110h1v1h-1zM84 110h1v1h-1zM87 110h1v1h-1zM90 110h1v1h-1zM92 110h1v1h-1zM95 110h1v1h-1zM97 110h1v1h-1zM99 110h1v1h-1zM101 110h1v1h-1zM103 110h1v1h-1zM105 110h1v1h-1zM107 110h1v1h-1zM111 110h1v1h-1zM118 110h1v1h-1zM120 110h1v1h-1zM125 110h2v1h-2zM73 111h1v1h-1zM76 111h1v1h-1zM82 111h1v1h-1zM86 111h1v1h-1zM89 111h1v1h-1zM91 111h1v1h-1zM93 111h1v1h-1zM95 111h1v1h-1zM97 111h1v1h-1zM99 111h1v1h-1zM101 111h1v1h-1zM104 111h1v1h-1zM116 111h1v1h-1zM120 111h1v1h-1zM125 111h3v1h-3zM72 112h2v1h-2zM77 112h1v1h-1zM79 112h1v1h-1zM84 112h1v1h-1zM87 112h1v1h-1zM90 112h1v1h-1zM93 112h1v1h-1zM96 112h1v1h-1zM99 112h1v1h-1zM102 112h1v1h-1zM106 112h1v1h-1zM108 112h1v1h-1zM112 112h1v1h-1zM114 112h1v1h-1zM119 112h2v1h-2zM125 112h4v1h-4zM71 113h3v1h-3zM77 113h1v1h-1zM86 113h1v1h-1zM89 113h1v1h-1zM92 113h1v1h-1zM95 113h1v1h-1zM98 113h1v1h-1zM100 113h1v1h-1zM102 113h1v1h-1zM104 113h1v1h-1zM110 113h1v1h-1zM120 113h1v1h-1zM126 113h3v1h-3zM71 114h2v1h-2zM77 114h2v1h-2zM81 114h1v1h-1zM84 114h1v1h-1zM88 114h1v1h-1zM91 114h1v1h-1zM94 114h1v1h-1zM96 114h1v1h-1zM100 114h1v1h-1zM108 114h1v1h-1zM113 114h1v1h-1zM116 114h1v1h-1zM118 114h3v1h-3zM126 114h4v1h-4zM70 115h3v1h-3zM78 115h2v1h-2zM89 115h1v1h-1zM93 115h1v1h-1zM97 115h1v1h-1zM99 115h1v1h-1zM103 115h1v1h-1zM106 115h1v1h-1zM111 115h1v1h-1zM119 115h1v1h-1zM126 115h5v1h-5zM69 116h4v1h-4zM78 116h2v1h-2zM82 116h1v1h-1zM85 116h1v1h-1zM87 116h1v1h-1zM91 116h1v1h-1zM95 116h1v1h-1zM100 116h1v1h-1zM102 116h1v1h-1zM108 116h1v1h-1zM113 116h1v1h-1zM116 116h4v1h-4zM126 116h3v1h-3zM130 116h2v1h-2zM69 117h4v1h-4zM79 117h3v1h-3zM89 117h1v1h-1zM93 117h1v1h-1zM97 117h1v1h-1zM99 117h1v1h-1zM104 117h1v1h-1zM106 117h1v1h-1zM117 117h2v1h-2zM127 117h4v1h-4zM132 117h2v1h-2zM66 118h7v1h-7zM80 118h1v1h-1zM82 118h1v1h-1zM90 118h1v1h-1zM94 118h1v1h-1zM101 118h1v1h-1zM108 118h1v1h-1zM110 118h1v1h-1zM112 118h1v1h-1zM114 118h1v1h-1zM116 118h2v1h-2zM127 118h6v1h-6zM134 118h2v1h-2zM64 119h2v1h-2zM67 119h1v1h-1zM69 119h4v1h-4zM80 119h3v1h-3zM84 119h1v1h-1zM86 119h1v1h-1zM88 119h1v1h-1zM91 119h1v1h-1zM93 119h1v1h-1zM96 119h1v1h-1zM98 119h1v1h-1zM100 119h1v1h-1zM104 119h1v1h-1zM106 119h1v1h-1zM115 119h2v1h-2zM127 119h8v1h-8zM136 119h3v1h-3zM61 120h4v1h-4zM66 120h6v1h-6zM81 120h2v1h-2zM84 120h1v1h-1zM95 120h1v1h-1zM98 120h1v1h-1zM102 120h1v1h-1zM108 120h1v1h-1zM113 120h4v1h-4zM126 120h4v1h-4zM131 120h2v1h-2zM134 120h3v1h-3zM138 120h2v1h-2zM59 121h2v1h-2zM62 121h1v1h-1zM64 121h4v1h-4zM69 121h3v1h-3zM82 121h2v1h-2zM85 121h1v1h-1zM88 121h1v1h-1zM91 121h1v1h-1zM93 121h1v1h-1zM96 121h1v1h-1zM100 121h1v1h-1zM103 121h1v1h-1zM106 121h1v1h-1zM111 121h1v1h-1zM114 121h2v1h-2zM127 121h8v1h-8zM136 121h8v1h-8zM56 122h1v1h-1zM58 122h2v1h-2zM61 122h4v1h-4zM66 122h6v1h-6zM83 122h2v1h-2zM86 122h1v1h-1zM90 122h1v1h-1zM95 122h1v1h-1zM98 122h1v1h-1zM102 122h1v1h-1zM105 122h1v1h-1zM108 122h1v1h-1zM112 122h3v1h-3zM126 122h4v1h-4zM131 122h1v1h-1zM133 122h4v1h-4zM138 122h2v1h-2zM141 122h1v1h-1zM143 122h1v1h-1zM145 122h1v1h-1zM54 123h1v1h-1zM56 123h2v1h-2zM59 123h4v1h-4zM64 123h3v1h-3zM68 123h5v1h-5zM84 123h2v1h-2zM88 123h1v1h-1zM93 123h1v1h-1zM100 123h1v1h-1zM103 123h1v1h-1zM109 123h1v1h-1zM111 123h1v1h-1zM113 123h1v1h-1zM126 123h9v1h-9zM136 123h13v1h-13zM51 124h1v1h-1zM53 124h12v1h-12zM66 124h7v1h-7zM84 124h3v1h-3zM90 124h1v1h-1zM92 124h1v1h-1zM95 124h1v1h-1zM97 124h1v1h-1zM99 124h1v1h-1zM104 124h1v1h-1zM106 124h1v1h-1zM110 124h1v1h-1zM112 124h2v1h-2zM126 124h3v1h-3zM130 124h2v1h-2zM133 124h4v1h-4zM138 124h4v1h-4zM143 124h2v1h-2zM146 124h1v1h-1zM148 124h1v1h-1zM150 124h1v1h-1zM50 125h1v1h-1zM52 125h3v1h-3zM56 125h1v1h-1zM58 125h1v1h-1zM60 125h2v1h-2zM63 125h1v1h-1zM65 125h4v1h-4zM70 125h3v1h-3zM85 125h3v1h-3zM89 125h1v1h-1zM94 125h1v1h-1zM97 125h1v1h-1zM101 125h1v1h-1zM103 125h1v1h-1zM107 125h1v1h-1zM109 125h1v1h-1zM111 125h2v1h-2zM126 125h9v1h-9zM136 125h2v1h-2zM139 125h13v1h-13zM153 125h1v1h-1zM46 126h1v1h-1zM48 126h4v1h-4zM53 126h1v1h-1zM55 126h10v1h-10zM66 126h1v1h-1zM68 126h5v1h-5zM86 126h3v1h-3zM90 126h1v1h-1zM92 126h1v1h-1zM95 126h1v1h-1zM98 126h1v1h-1zM100 126h1v1h-1zM103 126h1v1h-1zM105 126h1v1h-1zM109 126h3v1h-3zM126 126h4v1h-4zM131 126h1v1h-1zM133 126h9v1h-9zM143 126h1v1h-1zM145 126h1v1h-1zM147 126h1v1h-1zM149 126h1v1h-1zM151 126h3v1h-3zM155 126h1v1h-1zM43 127h2v1h-2zM46 127h3v1h-3zM50 127h1v1h-1zM52 127h5v1h-5zM58 127h3v1h-3zM62 127h1v1h-1zM64 127h9v1h-9zM87 127h3v1h-3zM91 127h1v1h-1zM93 127h1v1h-1zM96 127h1v1h-1zM99 127h1v1h-1zM102 127h1v1h-1zM107 127h1v1h-1zM109 127h2v1h-2zM126 127h2v1h-2zM129 127h6v1h-6zM136 127h1v1h-1zM138 127h1v1h-1zM140 127h13v1h-13zM154 127h4v1h-4zM159 127h1v1h-1zM40 128h1v1h-1zM42 128h1v1h-1zM44 128h2v1h-2zM47 128h1v1h-1zM49 128h4v1h-4zM54 128h1v1h-1zM56 128h6v1h-6zM63 128h2v1h-2zM66 128h1v1h-1zM68 128h2v1h-2zM71 128h2v1h-2zM88 128h2v1h-2zM92 128h1v1h-1zM94 128h1v1h-1zM97 128h1v1h-1zM100 128h1v1h-1zM102 128h1v1h-1zM104 128h1v1h-1zM106 128h1v1h-1zM108 128h2v1h-2zM126 128h4v1h-4zM131 128h2v1h-2zM134 128h10v1h-10zM145 128h2v1h-2zM148 128h2v1h-2zM151 128h3v1h-3zM155 128h1v1h-1zM157 128h2v1h-2zM160 128h1v1h-1zM37 129h1v1h-1zM39 129h1v1h-1zM41 129h3v1h-3zM45 129h7v1h-7zM53 129h7v1h-7zM61 129h2v1h-2zM64 129h4v1h-4zM69 129h4v1h-4zM89 129h2v1h-2zM92 129h1v1h-1zM95 129h1v1h-1zM97 129h1v1h-1zM99 129h1v1h-1zM101 129h1v1h-1zM103 129h1v1h-1zM105 129h1v1h-1zM107 129h2v1h-2zM125 129h10v1h-10zM136 129h2v1h-2zM139 129h1v1h-1zM141 129h7v1h-7zM149 129h3v1h-3zM153 129h5v1h-5zM159 129h4v1h-4zM164 129h1v1h-1zM34 130h1v1h-1zM36 130h2v1h-2zM39 130h2v1h-2zM42 130h3v1h-3zM46 130h1v1h-1zM48 130h1v1h-1zM50 130h1v1h-1zM52 130h2v1h-2zM55 130h6v1h-6zM62 130h3v1h-3zM66 130h7v1h-7zM89 130h3v1h-3zM93 130h1v1h-1zM96 130h1v1h-1zM98 130h1v1h-1zM101 130h1v1h-1zM103 130h1v1h-1zM105 130h3v1h-3zM125 130h4v1h-4zM130 130h1v1h-1zM132 130h5v1h-5zM138 130h5v1h-5zM144 130h2v1h-2zM147 130h3v1h-3zM151 130h3v1h-3zM155 130h1v1h-1zM157 130h3v1h-3zM161 130h1v1h-1zM163 130h1v1h-1zM165 130h2v1h-2zM32 131h1v1h-1zM34 131h2v1h-2zM37 131h2v1h-2zM40 131h2v1h-2zM43 131h1v1h-1zM45 131h11v1h-11zM57 131h3v1h-3zM61 131h2v1h-2zM64 131h3v1h-3zM68 131h1v1h-1zM70 131h4v1h-4zM91 131h1v1h-1zM93 131h1v1h-1zM95 131h1v1h-1zM98 131h1v1h-1zM100 131h1v1h-1zM102 131h1v1h-1zM104 131h1v1h-1zM106 131h1v1h-1zM125 131h8v1h-8zM134 131h1v1h-1zM136 131h3v1h-3zM140 131h1v1h-1zM142 131h11v1h-11zM154 131h4v1h-4zM159 131h1v1h-1zM161 131h5v1h-5zM167 131h2v1h-2zM170 131h1v1h-1zM28 132h1v1h-1zM30 132h2v1h-2zM33 132h2v1h-2zM36 132h5v1h-5zM42 132h4v1h-4zM47 132h1v1h-1zM49 132h1v1h-1zM51 132h1v1h-1zM53 132h6v1h-6zM60 132h4v1h-4zM65 132h6v1h-6zM72 132h2v1h-2zM91 132h2v1h-2zM94 132h1v1h-1zM96 132h1v1h-1zM98 132h1v1h-1zM100 132h1v1h-1zM102 132h1v1h-1zM104 132h2v1h-2zM125 132h3v1h-3zM129 132h2v1h-2zM132 132h5v1h-5zM138 132h7v1h-7zM146 132h1v1h-1zM148 132h1v1h-1zM150 132h1v1h-1zM152 132h3v1h-3zM156 132h5v1h-5zM162 132h1v1h-1zM164 132h1v1h-1zM166 132h2v1h-2zM169 132h1v1h-1zM171 132h1v1h-1zM173 132h1v1h-1zM26 133h1v1h-1zM28 133h2v1h-2zM31 133h2v1h-2zM34 133h3v1h-3zM38 133h1v1h-1zM40 133h3v1h-3zM44 133h1v1h-1zM46 133h9v1h-9zM56 133h4v1h-4zM61 133h1v1h-1zM63 133h2v1h-2zM66 133h1v1h-1zM68 133h1v1h-1zM70 133h4v1h-4zM92 133h2v1h-2zM95 133h1v1h-1zM97 133h1v1h-1zM99 133h1v1h-1zM101 133h1v1h-1zM103 133h2v1h-2zM125 133h5v1h-5zM131 133h4v1h-4zM136 133h4v1h-4zM141 133h1v1h-1zM143 133h10v1h-10zM154 133h3v1h-3zM158 133h1v1h-1zM160 133h8v1h-8zM169 133h3v1h-3zM173 133h1v1h-1zM175 133h1v1h-1zM22 134h1v1h-1zM24 134h4v1h-4zM29 134h3v1h-3zM33 134h2v1h-2zM36 134h4v1h-4zM41 134h5v1h-5zM47 134h1v1h-1zM49 134h1v1h-1zM51 134h2v1h-2zM54 134h4v1h-4zM59 134h4v1h-4zM64 134h10v1h-10zM94 134h1v1h-1zM96 134h1v1h-1zM98 134h1v1h-1zM100 134h1v1h-1zM102 134h2v1h-2zM125 134h7v1h-7zM133 134h1v1h-1zM135 134h2v1h-2zM138 134h3v1h-3zM142 134h4v1h-4zM147 134h2v1h-2zM150 134h2v1h-2zM153 134h2v1h-2zM156 134h4v1h-4zM161 134h1v1h-1zM163 134h1v1h-1zM165 134h1v1h-1zM167 134h2v1h-2zM170 134h1v1h-1zM172 134h3v1h-3zM176 134h2v1h-2zM21 135h1v1h-1zM23 135h2v1h-2zM26 135h1v1h-1zM28 135h3v1h-3zM32 135h4v1h-4zM37 135h1v1h-1zM39 135h3v1h-3zM43 135h1v1h-1zM45 135h6v1h-6zM52 135h5v1h-5zM58 135h1v1h-1zM60 135h1v1h-1zM62 135h4v1h-4zM67 135h1v1h-1zM69 135h6v1h-6zM95 135h2v1h-2zM98 135h1v1h-1zM100 135h3v1h-3zM124 135h4v1h-4zM129 135h2v1h-2zM132 135h7v1h-7zM140 135h2v1h-2zM143 135h7v1h-7zM151 135h6v1h-6zM158 135h1v1h-1zM160 135h3v1h-3zM164 135h3v1h-3zM168 135h6v1h-6zM175 135h2v1h-2zM178 135h2v1h-2zM181 135h1v1h-1zM17 136h1v1h-1zM19 136h2v1h-2zM22 136h2v1h-2zM25 136h3v1h-3zM29 136h1v1h-1zM31 136h2v1h-2zM34 136h5v1h-5zM40 136h5v1h-5zM46 136h1v1h-1zM48 136h5v1h-5zM54 136h4v1h-4zM59 136h3v1h-3zM63 136h1v1h-1zM65 136h5v1h-5zM71 136h4v1h-4zM97 136h1v1h-1zM99 136h1v1h-1zM124 136h9v1h-9zM134 136h1v1h-1zM136 136h1v1h-1zM138 136h2v1h-2zM141 136h4v1h-4zM146 136h2v1h-2zM149 136h3v1h-3zM153 136h1v1h-1zM155 136h5v1h-5zM161 136h3v1h-3zM165 136h1v1h-1zM167 136h2v1h-2zM170 136h1v1h-1zM172 136h1v1h-1zM174 136h2v1h-2zM177 136h1v1h-1zM179 136h1v1h-1zM181 136h1v1h-1zM183 136h1v1h-1zM15 137h1v1h-1zM17 137h2v1h-2zM20 137h3v1h-3zM24 137h3v1h-3zM28 137h4v1h-4zM33 137h2v1h-2zM36 137h1v1h-1zM38 137h2v1h-2zM41 137h1v1h-1zM43 137h1v1h-1zM45 137h4v1h-4zM50 137h1v1h-1zM52 137h5v1h-5zM58 137h1v1h-1zM60 137h1v1h-1zM62 137h4v1h-4zM67 137h1v1h-1zM69 137h6v1h-6zM107 137h2v1h-2zM124 137h6v1h-6zM131 137h4v1h-4zM136 137h3v1h-3zM140 137h11v1h-11zM152 137h4v1h-4zM157 137h1v1h-1zM159 137h2v1h-2zM162 137h1v1h-1zM164 137h5v1h-5zM170 137h2v1h-2zM173 137h2v1h-2zM176 137h7v1h-7zM184 137h1v1h-1zM186 137h1v1h-1zM13 138h1v1h-1zM15 138h2v1h-2zM18 138h3v1h-3zM22 138h3v1h-3zM26 138h3v1h-3zM30 138h3v1h-3zM34 138h3v1h-3zM38 138h8v1h-8zM47 138h6v1h-6zM54 138h6v1h-6zM61 138h2v1h-2zM64 138h1v1h-1zM66 138h4v1h-4zM71 138h4v1h-4zM107 138h3v1h-3zM123 138h4v1h-4zM128 138h4v1h-4zM133 138h1v1h-1zM135 138h2v1h-2zM138 138h6v1h-6zM145 138h2v1h-2zM148 138h2v1h-2zM151 138h2v1h-2zM154 138h1v1h-1zM156 138h4v1h-4zM161 138h3v1h-3zM165 138h1v1h-1zM167 138h1v1h-1zM169 138h2v1h-2zM172 138h2v1h-2zM175 138h2v1h-2zM178 138h1v1h-1zM180 138h1v1h-1zM182 138h3v1h-3zM186 138h1v1h-1zM188 138h1v1h-1zM12 139h1v1h-1zM14 139h2v1h-2zM17 139h3v1h-3zM21 139h2v1h-2zM24 139h2v1h-2zM27 139h1v1h-1zM29 139h2v1h-2zM32 139h3v1h-3zM36 139h2v1h-2zM39 139h1v1h-1zM41 139h1v1h-1zM43 139h1v1h-1zM45 139h2v1h-2zM48 139h2v1h-2zM51 139h4v1h-4zM56 139h5v1h-5zM62 139h1v1h-1zM64 139h4v1h-4zM69 139h2v1h-2zM72 139h4v1h-4zM91 139h4v1h-4zM106 139h6v1h-6zM123 139h7v1h-7zM131 139h11v1h-11zM143 139h5v1h-5zM149 139h8v1h-8zM158 139h1v1h-1zM160 139h3v1h-3zM164 139h8v1h-8zM173 139h3v1h-3zM177 139h3v1h-3zM181 139h2v1h-2zM184 139h1v1h-1zM186 139h2v1h-2zM189 139h1v1h-1zM191 139h1v1h-1zM11 140h3v1h-3zM15 140h2v1h-2zM18 140h1v1h-1zM20 140h2v1h-2zM23 140h2v1h-2zM26 140h3v1h-3zM30 140h2v1h-2zM33 140h1v1h-1zM35 140h6v1h-6zM42 140h7v1h-7zM50 140h2v1h-2zM53 140h13v1h-13zM67 140h9v1h-9zM90 140h3v1h-3zM94 140h1v1h-1zM96 140h3v1h-3zM105 140h8v1h-8zM123 140h5v1h-5zM129 140h3v1h-3zM133 140h11v1h-11zM145 140h5v1h-5zM151 140h1v1h-1zM153 140h1v1h-1zM155 140h6v1h-6zM162 140h3v1h-3zM166 140h1v1h-1zM168 140h1v1h-1zM170 140h1v1h-1zM172 140h2v1h-2zM175 140h2v1h-2zM178 140h1v1h-1zM180 140h2v1h-2zM183 140h3v1h-3zM187 140h3v1h-3zM191 140h1v1h-1zM10 141h2v1h-2zM13 141h2v1h-2zM16 141h7v1h-7zM24 141h3v1h-3zM28 141h3v1h-3zM32 141h3v1h-3zM36 141h1v1h-1zM38 141h1v1h-1zM40 141h3v1h-3zM44 141h1v1h-1zM46 141h1v1h-1zM48 141h6v1h-6zM55 141h1v1h-1zM57 141h1v1h-1zM59 141h5v1h-5zM65 141h2v1h-2zM68 141h2v1h-2zM71 141h1v1h-1zM73 141h3v1h-3zM88 141h4v1h-4zM100 141h1v1h-1zM102 141h11v1h-11zM123 141h3v1h-3zM127 141h7v1h-7zM135 141h5v1h-5zM141 141h1v1h-1zM143 141h3v1h-3zM147 141h1v1h-1zM149 141h6v1h-6zM156 141h1v1h-1zM158 141h1v1h-1zM160 141h2v1h-2zM163 141h1v1h-1zM165 141h1v1h-1zM167 141h2v1h-2zM170 141h3v1h-3zM174 141h2v1h-2zM177 141h4v1h-4zM182 141h3v1h-3zM186 141h2v1h-2zM189 141h2v1h-2zM192 141h1v1h-1zM8 142h1v1h-1zM10 142h4v1h-4zM15 142h2v1h-2zM18 142h1v1h-1zM20 142h1v1h-1zM22 142h3v1h-3zM26 142h2v1h-2zM29 142h1v1h-1zM31 142h2v1h-2zM34 142h4v1h-4zM39 142h2v1h-2zM42 142h7v1h-7zM50 142h2v1h-2zM53 142h3v1h-3zM57 142h3v1h-3zM61 142h8v1h-8zM70 142h6v1h-6zM87 142h3v1h-3zM92 142h1v1h-1zM99 142h1v1h-1zM101 142h1v1h-1zM105 142h5v1h-5zM114 142h1v1h-1zM122 142h6v1h-6zM129 142h1v1h-1zM131 142h4v1h-4zM136 142h1v1h-1zM138 142h6v1h-6zM145 142h5v1h-5zM151 142h1v1h-1zM153 142h5v1h-5zM159 142h2v1h-2zM162 142h5v1h-5zM168 142h3v1h-3zM172 142h3v1h-3zM176 142h2v1h-2zM179 142h3v1h-3zM183 142h1v1h-1zM185 142h2v1h-2zM188 142h2v1h-2zM191 142h1v1h-1zM193 142h1v1h-1zM9 143h1v1h-1zM11 143h2v1h-2zM14 143h2v1h-2zM17 143h3v1h-3zM21 143h3v1h-3zM25 143h2v1h-2zM28 143h3v1h-3zM32 143h3v1h-3zM36 143h1v1h-1zM38 143h4v1h-4zM43 143h2v1h-2zM46 143h1v1h-1zM48 143h2v1h-2zM51 143h3v1h-3zM55 143h2v1h-2zM58 143h1v1h-1zM60 143h3v1h-3zM64 143h1v1h-1zM66 143h1v1h-1zM68 143h4v1h-4zM73 143h4v1h-4zM86 143h5v1h-5zM93 143h1v1h-1zM106 143h2v1h-2zM115 143h1v1h-1zM122 143h10v1h-10zM133 143h1v1h-1zM135 143h3v1h-3zM139 143h2v1h-2zM142 143h1v1h-1zM144 143h4v1h-4zM149 143h5v1h-5zM155 143h1v1h-1zM157 143h2v1h-2zM160 143h3v1h-3zM164 143h1v1h-1zM166 143h2v1h-2zM169 143h1v1h-1zM171 143h2v1h-2zM174 143h2v1h-2zM177 143h2v1h-2zM180 143h1v1h-1zM182 143h4v1h-4zM187 143h2v1h-2zM190 143h3v1h-3zM8 144h1v1h-1zM10 144h5v1h-5zM16 144h2v1h-2zM19 144h2v1h-2zM22 144h1v1h-1zM24 144h2v1h-2zM27 144h2v1h-2zM30 144h3v1h-3zM34 144h5v1h-5zM40 144h4v1h-4zM45 144h7v1h-7zM53 144h3v1h-3zM57 144h4v1h-4zM62 144h6v1h-6zM69 144h1v1h-1zM71 144h6v1h-6zM87 144h2v1h-2zM92 144h1v1h-1zM94 144h1v1h-1zM107 144h1v1h-1zM122 144h3v1h-3zM126 144h1v1h-1zM128 144h2v1h-2zM131 144h5v1h-5zM137 144h2v1h-2zM140 144h5v1h-5zM146 144h4v1h-4zM151 144h1v1h-1zM153 144h4v1h-4zM158 144h3v1h-3zM162 144h4v1h-4zM167 144h4v1h-4zM172 144h2v1h-2zM175 144h2v1h-2zM178 144h4v1h-4zM183 144h1v1h-1zM185 144h5v1h-5zM191 144h3v1h-3zM8 145h2v1h-2zM11 145h2v1h-2zM14 145h2v1h-2zM17 145h2v1h-2zM20 145h4v1h-4zM25 145h3v1h-3zM29 145h3v1h-3zM33 145h2v1h-2zM36 145h1v1h-1zM38 145h2v1h-2zM41 145h1v1h-1zM43 145h4v1h-4zM48 145h2v1h-2zM51 145h3v1h-3zM55 145h4v1h-4zM60 145h2v1h-2zM63 145h1v1h-1zM65 145h1v1h-1zM67 145h6v1h-6zM74 145h3v1h-3zM84 145h1v1h-1zM88 145h3v1h-3zM95 145h2v1h-2zM106 145h1v1h-1zM118 145h1v1h-1zM122 145h12v1h-12zM135 145h2v1h-2zM138 145h3v1h-3zM142 145h1v1h-1zM144 145h4v1h-4zM149 145h5v1h-5zM155 145h1v1h-1zM157 145h2v1h-2zM160 145h2v1h-2zM163 145h1v1h-1zM165 145h2v1h-2zM168 145h1v1h-1zM170 145h2v1h-2zM173 145h2v1h-2zM176 145h3v1h-3zM180 145h1v1h-1zM182 145h4v1h-4zM187 145h1v1h-1zM189 145h2v1h-2zM192 145h1v1h-1zM8 146h1v1h-1zM10 146h4v1h-4zM15 146h3v1h-3zM19 146h2v1h-2zM22 146h3v1h-3zM26 146h3v1h-3zM30 146h1v1h-1zM32 146h2v1h-2zM35 146h3v1h-3zM39 146h4v1h-4zM44 146h2v1h-2zM47 146h5v1h-5zM53 146h3v1h-3zM57 146h1v1h-1zM59 146h2v1h-2zM62 146h5v1h-5zM68 146h1v1h-1zM70 146h1v1h-1zM72 146h5v1h-5zM82 146h1v1h-1zM88 146h2v1h-2zM91 146h1v1h-1zM93 146h1v1h-1zM97 146h1v1h-1zM104 146h2v1h-2zM118 146h2v1h-2zM121 146h4v1h-4zM126 146h2v1h-2zM129 146h1v1h-1zM131 146h1v1h-1zM133 146h6v1h-6zM140 146h5v1h-5zM146 146h1v1h-1zM148 146h2v1h-2zM151 146h2v1h-2zM154 146h4v1h-4zM159 146h2v1h-2zM162 146h3v1h-3zM166 146h4v1h-4zM171 146h3v1h-3zM175 146h2v1h-2zM178 146h2v1h-2zM181 146h2v1h-2zM184 146h1v1h-1zM186 146h3v1h-3zM190 146h4v1h-4zM7 147h1v1h-1zM9 147h2v1h-2zM12 147h4v1h-4zM17 147h2v1h-2zM20 147h2v1h-2zM23 147h1v1h-1zM25 147h2v1h-2zM28 147h4v1h-4zM33 147h4v1h-4zM38 147h3v1h-3zM42 147h2v1h-2zM45 147h3v1h-3zM49 147h1v1h-1zM51 147h2v1h-2zM54 147h2v1h-2zM57 147h2v1h-2zM60 147h4v1h-4zM65 147h1v1h-1zM67 147h7v1h-7zM75 147h3v1h-3zM80 147h1v1h-1zM89 147h2v1h-2zM94 147h1v1h-1zM96 147h1v1h-1zM98 147h2v1h-2zM119 147h7v1h-7zM127 147h8v1h-8zM136 147h1v1h-1zM138 147h3v1h-3zM142 147h1v1h-1zM145 147h6v1h-6zM152 147h4v1h-4zM157 147h2v1h-2zM160 147h3v1h-3zM164 147h3v1h-3zM168 147h1v1h-1zM170 147h2v1h-2zM173 147h2v1h-2zM176 147h2v1h-2zM179 147h2v1h-2zM182 147h2v1h-2zM185 147h3v1h-3zM189 147h2v1h-2zM192 147h1v1h-1zM194 147h1v1h-1zM7 148h2v1h-2zM10 148h1v1h-1zM12 148h2v1h-2zM15 148h3v1h-3zM19 148h2v1h-2zM22 148h4v1h-4zM27 148h2v1h-2zM30 148h4v1h-4zM35 148h1v1h-1zM37 148h2v1h-2zM40 148h3v1h-3zM44 148h11v1h-11zM56 148h5v1h-5zM62 148h1v1h-1zM64 148h4v1h-4zM69 148h1v1h-1zM71 148h1v1h-1zM73 148h7v1h-7zM90 148h1v1h-1zM92 148h1v1h-1zM97 148h1v1h-1zM99 148h2v1h-2zM103 148h2v1h-2zM120 148h4v1h-4zM125 148h3v1h-3zM129 148h1v1h-1zM131 148h1v1h-1zM133 148h5v1h-5zM139 148h7v1h-7zM147 148h1v1h-1zM149 148h4v1h-4zM154 148h1v1h-1zM156 148h4v1h-4zM161 148h3v1h-3zM165 148h5v1h-5zM171 148h3v1h-3zM175 148h2v1h-2zM178 148h2v1h-2zM181 148h2v1h-2zM184 148h5v1h-5zM190 148h4v1h-4zM7 149h1v1h-1zM9 149h7v1h-7zM17 149h2v1h-2zM20 149h3v1h-3zM24 149h1v1h-1zM26 149h2v1h-2zM29 149h2v1h-2zM32 149h1v1h-1zM34 149h4v1h-4zM39 149h2v1h-2zM42 149h3v1h-3zM46 149h1v1h-1zM48 149h1v1h-1zM50 149h1v1h-1zM52 149h1v1h-1zM54 149h2v1h-2zM57 149h1v1h-1zM59 149h1v1h-1zM61 149h4v1h-4zM66 149h1v1h-1zM68 149h7v1h-7zM76 149h4v1h-4zM90 149h2v1h-2zM95 149h1v1h-1zM98 149h1v1h-1zM101 149h1v1h-1zM120 149h6v1h-6zM127 149h7v1h-7zM135 149h1v1h-1zM137 149h2v1h-2zM140 149h1v1h-1zM142 149h1v1h-1zM144 149h5v1h-5zM150 149h2v1h-2zM153 149h5v1h-5zM159 149h2v1h-2zM162 149h1v1h-1zM164 149h2v1h-2zM167 149h1v1h-1zM169 149h3v1h-3zM173 149h2v1h-2zM176 149h5v1h-5zM182 149h3v1h-3zM186 149h2v1h-2zM189 149h2v1h-2zM192 149h1v1h-1zM194 149h1v1h-1zM7 150h2v1h-2zM10 150h1v1h-1zM12 150h2v1h-2zM15 150h2v1h-2zM18 150h3v1h-3zM22 150h5v1h-5zM28 150h2v1h-2zM31 150h3v1h-3zM35 150h1v1h-1zM37 150h3v1h-3zM41 150h2v1h-2zM44 150h18v1h-18zM63 150h6v1h-6zM70 150h1v1h-1zM72 150h1v1h-1zM74 150h6v1h-6zM90 150h2v1h-2zM93 150h1v1h-1zM97 150h1v1h-1zM99 150h4v1h-4zM118 150h1v1h-1zM120 150h3v1h-3zM124 150h4v1h-4zM129 150h2v1h-2zM132 150h9v1h-9zM142 150h5v1h-5zM148 150h3v1h-3zM152 150h2v1h-2zM155 150h1v1h-1zM157 150h2v1h-2zM160 150h4v1h-4zM165 150h2v1h-2zM168 150h2v1h-2zM171 150h2v1h-2zM174 150h3v1h-3zM178 150h1v1h-1zM180 150h3v1h-3zM184 150h3v1h-3zM188 150h6v1h-6zM7 151h1v1h-1zM9 151h2v1h-2zM12 151h3v1h-3zM16 151h3v1h-3zM20 151h2v1h-2zM23 151h1v1h-1zM25 151h1v1h-1zM27 151h5v1h-5zM33 151h5v1h-5zM39 151h2v1h-2zM42 151h4v1h-4zM47 151h2v1h-2zM50 151h1v1h-1zM52 151h3v1h-3zM56 151h1v1h-1zM58 151h1v1h-1zM60 151h1v1h-1zM62 151h2v1h-2zM65 151h1v1h-1zM67 151h1v1h-1zM69 151h6v1h-6zM76 151h4v1h-4zM91 151h2v1h-2zM96 151h1v1h-1zM101 151h2v1h-2zM120 151h6v1h-6zM127 151h2v1h-2zM130 151h3v1h-3zM134 151h1v1h-1zM136 151h2v1h-2zM139 151h1v1h-1zM141 151h2v1h-2zM144 151h5v1h-5zM150 151h5v1h-5zM156 151h2v1h-2zM159 151h3v1h-3zM163 151h2v1h-2zM166 151h2v1h-2zM169 151h2v1h-2zM172 151h3v1h-3zM176 151h1v1h-1zM178 151h3v1h-3zM182 151h2v1h-2zM185 151h3v1h-3zM189 151h1v1h-1zM191 151h1v1h-1zM193 151h2v1h-2zM6 152h1v1h-1zM8 152h6v1h-6zM15 152h2v1h-2zM18 152h3v1h-3zM22 152h5v1h-5zM28 152h1v1h-1zM30 152h3v1h-3zM34 152h1v1h-1zM36 152h3v1h-3zM40 152h3v1h-3zM44 152h4v1h-4zM49 152h4v1h-4zM54 152h3v1h-3zM58 152h5v1h-5zM64 152h5v1h-5zM70 152h1v1h-1zM72 152h8v1h-8zM92 152h3v1h-3zM98 152h4v1h-4zM119 152h4v1h-4zM124 152h7v1h-7zM132 152h5v1h-5zM138 152h3v1h-3zM142 152h4v1h-4zM147 152h4v1h-4zM152 152h1v1h-1zM154 152h3v1h-3zM158 152h2v1h-2zM161 152h2v1h-2zM164 152h6v1h-6zM171 152h2v1h-2zM174 152h4v1h-4zM179 152h1v1h-1zM181 152h2v1h-2zM184 152h3v1h-3zM188 152h5v1h-5zM194 152h1v1h-1zM7 153h3v1h-3zM11 153h1v1h-1zM13 153h3v1h-3zM17 153h2v1h-2zM20 153h3v1h-3zM24 153h1v1h-1zM26 153h4v1h-4zM31 153h1v1h-1zM33 153h4v1h-4zM38 153h3v1h-3zM42 153h2v1h-2zM45 153h1v1h-1zM47 153h4v1h-4zM52 153h4v1h-4zM57 153h2v1h-2zM60 153h1v1h-1zM62 153h3v1h-3zM66 153h1v1h-1zM68 153h6v1h-6zM75 153h1v1h-1zM77 153h3v1h-3zM92 153h4v1h-4zM101 153h1v1h-1zM119 153h6v1h-6zM126 153h1v1h-1zM128 153h1v1h-1zM130 153h3v1h-3zM134 153h1v1h-1zM136 153h3v1h-3zM140 153h2v1h-2zM143 153h5v1h-5zM149 153h1v1h-1zM151 153h4v1h-4zM156 153h2v1h-2zM159 153h2v1h-2zM162 153h3v1h-3zM166 153h1v1h-1zM168 153h1v1h-1zM170 153h4v1h-4zM175 153h1v1h-1zM177 153h4v1h-4zM182 153h6v1h-6zM189 153h2v1h-2zM192 153h2v1h-2zM195 153h1v1h-1zM6 154h1v1h-1zM8 154h1v1h-1zM10 154h5v1h-5zM16 154h2v1h-2zM19 154h2v1h-2zM22 154h4v1h-4zM27 154h1v1h-1zM29 154h5v1h-5zM35 154h1v1h-1zM37 154h2v1h-2zM40 154h3v1h-3zM44 154h3v1h-3zM48 154h1v1h-1zM50 154h3v1h-3zM54 154h4v1h-4zM59 154h3v1h-3zM63 154h5v1h-5zM69 154h1v1h-1zM71 154h1v1h-1zM73 154h7v1h-7zM92 154h10v1h-10zM119 154h3v1h-3zM123 154h7v1h-7zM131 154h5v1h-5zM137 154h3v1h-3zM141 154h4v1h-4zM146 154h5v1h-5zM152 154h1v1h-1zM154 154h3v1h-3zM158 154h4v1h-4zM163 154h8v1h-8zM172 154h5v1h-5zM178 154h1v1h-1zM180 154h3v1h-3zM184 154h2v1h-2zM187 154h8v1h-8zM6 155h1v1h-1zM8 155h4v1h-4zM13 155h3v1h-3zM17 155h6v1h-6zM24 155h1v1h-1zM26 155h5v1h-5zM32 155h1v1h-1zM34 155h3v1h-3zM38 155h3v1h-3zM42 155h3v1h-3zM46 155h5v1h-5zM52 155h5v1h-5zM58 155h2v1h-2zM61 155h2v1h-2zM64 155h1v1h-1zM66 155h1v1h-1zM68 155h5v1h-5zM74 155h2v1h-2zM77 155h3v1h-3zM93 155h1v1h-1zM100 155h2v1h-2zM119 155h5v1h-5zM125 155h1v1h-1zM127 155h1v1h-1zM129 155h3v1h-3zM133 155h1v1h-1zM135 155h2v1h-2zM138 155h1v1h-1zM140 155h1v1h-1zM142 155h5v1h-5zM148 155h1v1h-1zM150 155h4v1h-4zM155 155h1v1h-1zM157 155h3v1h-3zM161 155h3v1h-3zM165 155h1v1h-1zM167 155h1v1h-1zM169 155h1v1h-1zM171 155h2v1h-2zM174 155h1v1h-1zM176 155h6v1h-6zM183 155h5v1h-5zM189 155h1v1h-1zM191 155h1v1h-1zM193 155h1v1h-1zM195 155h1v1h-1zM6 156h2v1h-2zM9 156h1v1h-1zM11 156h6v1h-6zM18 156h1v1h-1zM20 156h1v1h-1zM22 156h4v1h-4zM27 156h1v1h-1zM29 156h6v1h-6zM36 156h3v1h-3zM40 156h2v1h-2zM43 156h4v1h-4zM48 156h2v1h-2zM51 156h2v1h-2zM54 156h5v1h-5zM60 156h8v1h-8zM69 156h1v1h-1zM71 156h4v1h-4zM76 156h4v1h-4zM93 156h1v1h-1zM99 156h3v1h-3zM118 156h4v1h-4zM123 156h7v1h-7zM131 156h4v1h-4zM136 156h4v1h-4zM141 156h4v1h-4zM146 156h4v1h-4zM151 156h1v1h-1zM153 156h5v1h-5zM159 156h2v1h-2zM162 156h10v1h-10zM173 156h3v1h-3zM177 156h1v1h-1zM179 156h1v1h-1zM181 156h4v1h-4zM186 156h1v1h-1zM188 156h6v1h-6zM195 156h1v1h-1zM7 157h4v1h-4zM12 157h1v1h-1zM14 157h2v1h-2zM17 157h7v1h-7zM25 157h4v1h-4zM30 157h1v1h-1zM32 157h1v1h-1zM34 157h3v1h-3zM38 157h2v1h-2zM41 157h2v1h-2zM44 157h1v1h-1zM46 157h2v1h-2zM49 157h7v1h-7zM57 157h1v1h-1zM59 157h2v1h-2zM62 157h1v1h-1zM64 157h1v1h-1zM66 157h1v1h-1zM68 157h3v1h-3zM72 157h1v1h-1zM74 157h7v1h-7zM93 157h2v1h-2zM96 157h1v1h-1zM99 157h3v1h-3zM118 157h7v1h-7zM126 157h1v1h-1zM128 157h1v1h-1zM130 157h3v1h-3zM134 157h3v1h-3zM138 157h1v1h-1zM140 157h4v1h-4zM145 157h2v1h-2zM148 157h1v1h-1zM150 157h4v1h-4zM155 157h1v1h-1zM157 157h2v1h-2zM160 157h3v1h-3zM164 157h1v1h-1zM166 157h1v1h-1zM168 157h1v1h-1zM170 157h1v1h-1zM172 157h3v1h-3zM176 157h6v1h-6zM183 157h2v1h-2zM186 157h6v1h-6zM193 157h2v1h-2zM5 158h2v1h-2zM8 158h1v1h-1zM10 158h8v1h-8zM19 158h1v1h-1zM21 158h1v1h-1zM23 158h2v1h-2zM26 158h1v1h-1zM28 158h6v1h-6zM35 158h4v1h-4zM40 158h6v1h-6zM47 158h3v1h-3zM51 158h1v1h-1zM53 158h1v1h-1zM55 158h5v1h-5zM61 158h8v1h-8zM70 158h4v1h-4zM75 158h1v1h-1zM77 158h4v1h-4zM93 158h1v1h-1zM97 158h5v1h-5zM118 158h3v1h-3zM122 158h2v1h-2zM125 158h6v1h-6zM132 158h2v1h-2zM135 158h5v1h-5zM141 158h5v1h-5zM147 158h4v1h-4zM152 158h5v1h-5zM158 158h3v1h-3zM162 158h10v1h-10zM173 158h1v1h-1zM175 158h2v1h-2zM178 158h1v1h-1zM180 158h6v1h-6zM187 158h1v1h-1zM189 158h1v1h-1zM191 158h3v1h-3zM195 158h2v1h-2zM5 159h1v1h-1zM7 159h6v1h-6zM14 159h3v1h-3zM18 159h5v1h-5zM24 159h6v1h-6zM31 159h1v1h-1zM33 159h2v1h-2zM36 159h1v1h-1zM38 159h3v1h-3zM42 159h1v1h-1zM44 159h1v1h-1zM46 159h3v1h-3zM50 159h8v1h-8zM59 159h3v1h-3zM63 159h1v1h-1zM65 159h1v1h-1zM67 159h1v1h-1zM69 159h3v1h-3zM73 159h8v1h-8zM93 159h1v1h-1zM96 159h1v1h-1zM98 159h1v1h-1zM100 159h3v1h-3zM118 159h4v1h-4zM123 159h4v1h-4zM128 159h1v1h-1zM130 159h2v1h-2zM133 159h2v1h-2zM136 159h1v1h-1zM138 159h1v1h-1zM140 159h4v1h-4zM145 159h4v1h-4zM150 159h2v1h-2zM153 159h1v1h-1zM155 159h1v1h-1zM157 159h3v1h-3zM161 159h3v1h-3zM165 159h1v1h-1zM167 159h1v1h-1zM169 159h1v1h-1zM171 159h4v1h-4zM176 159h5v1h-5zM182 159h3v1h-3zM186 159h6v1h-6zM193 159h3v1h-3zM5 160h3v1h-3zM9 160h1v1h-1zM11 160h1v1h-1zM13 160h5v1h-5zM19 160h1v1h-1zM21 160h3v1h-3zM25 160h1v1h-1zM27 160h1v1h-1zM29 160h10v1h-10zM40 160h7v1h-7zM48 160h3v1h-3zM52 160h1v1h-1zM54 160h3v1h-3zM58 160h1v1h-1zM60 160h3v1h-3zM64 160h5v1h-5zM70 160h1v1h-1zM72 160h2v1h-2zM75 160h1v1h-1zM77 160h4v1h-4zM93 160h1v1h-1zM95 160h8v1h-8zM117 160h7v1h-7zM125 160h5v1h-5zM131 160h6v1h-6zM138 160h7v1h-7zM146 160h1v1h-1zM148 160h2v1h-2zM151 160h6v1h-6zM158 160h1v1h-1zM160 160h2v1h-2zM163 160h8v1h-8zM172 160h1v1h-1zM174 160h3v1h-3zM178 160h1v1h-1zM180 160h4v1h-4zM185 160h2v1h-2zM188 160h6v1h-6zM195 160h2v1h-2zM5 161h1v1h-1zM7 161h6v1h-6zM14 161h2v1h-2zM17 161h4v1h-4zM22 161h1v1h-1zM24 161h6v1h-6zM31 161h1v1h-1zM33 161h1v1h-1zM35 161h1v1h-1zM37 161h1v1h-1zM39 161h3v1h-3zM43 161h1v1h-1zM45 161h1v1h-1zM47 161h2v1h-2zM50 161h5v1h-5zM56 161h4v1h-4zM61 161h1v1h-1zM63 161h3v1h-3zM67 161h1v1h-1zM69 161h8v1h-8zM78 161h3v1h-3zM93 161h1v1h-1zM95 161h1v1h-1zM97 161h1v1h-1zM99 161h1v1h-1zM101 161h2v1h-2zM117 161h5v1h-5zM123 161h3v1h-3zM127 161h1v1h-1zM129 161h3v1h-3zM133 161h1v1h-1zM135 161h1v1h-1zM137 161h2v1h-2zM140 161h2v1h-2zM143 161h1v1h-1zM145 161h3v1h-3zM149 161h3v1h-3zM153 161h1v1h-1zM155 161h1v1h-1zM157 161h7v1h-7zM165 161h1v1h-1zM167 161h1v1h-1zM169 161h1v1h-1zM171 161h5v1h-5zM177 161h4v1h-4zM182 161h3v1h-3zM186 161h4v1h-4zM191 161h1v1h-1zM193 161h2v1h-2zM196 161h1v1h-1zM4 162h2v1h-2zM7 162h2v1h-2zM10 162h1v1h-1zM12 162h6v1h-6zM19 162h6v1h-6zM26 162h1v1h-1zM28 162h12v1h-12zM41 162h7v1h-7zM49 162h2v1h-2zM52 162h1v1h-1zM54 162h4v1h-4zM59 162h4v1h-4zM64 162h1v1h-1zM66 162h4v1h-4zM71 162h1v1h-1zM73 162h1v1h-1zM75 162h6v1h-6zM93 162h5v1h-5zM99 162h5v1h-5zM117 162h3v1h-3zM121 162h3v1h-3zM125 162h4v1h-4zM130 162h7v1h-7zM138 162h8v1h-8zM147 162h3v1h-3zM151 162h7v1h-7zM159 162h1v1h-1zM161 162h1v1h-1zM163 162h9v1h-9zM173 162h1v1h-1zM175 162h3v1h-3zM179 162h5v1h-5zM185 162h9v1h-9zM195 162h2v1h-2zM3 163h1v1h-1zM5 163h2v1h-2zM8 163h6v1h-6zM15 163h5v1h-5zM21 163h1v1h-1zM23 163h1v1h-1zM25 163h3v1h-3zM29 163h1v1h-1zM31 163h1v1h-1zM33 163h1v1h-1zM35 163h1v1h-1zM37 163h1v1h-1zM39 163h3v1h-3zM43 163h1v1h-1zM45 163h1v1h-1zM47 163h2v1h-2zM50 163h5v1h-5zM56 163h4v1h-4zM61 163h1v1h-1zM63 163h4v1h-4zM68 163h1v1h-1zM70 163h5v1h-5zM76 163h1v1h-1zM78 163h4v1h-4zM93 163h3v1h-3zM97 163h1v1h-1zM99 163h1v1h-1zM101 163h2v1h-2zM117 163h6v1h-6zM124 163h3v1h-3zM128 163h2v1h-2zM131 163h1v1h-1zM133 163h1v1h-1zM135 163h1v1h-1zM137 163h1v1h-1zM139 163h4v1h-4zM144 163h1v1h-1zM146 163h2v1h-2zM149 163h2v1h-2zM152 163h1v1h-1zM154 163h1v1h-1zM156 163h1v1h-1zM158 163h7v1h-7zM166 163h1v1h-1zM168 163h1v1h-1zM170 163h1v1h-1zM172 163h4v1h-4zM177 163h3v1h-3zM181 163h2v1h-2zM184 163h4v1h-4zM189 163h1v1h-1zM191 163h1v1h-1zM193 163h3v1h-3zM197 163h1v1h-1zM4 164h2v1h-2zM7 164h2v1h-2zM10 164h2v1h-2zM13 164h5v1h-5zM19 164h6v1h-6zM26 164h13v1h-13zM40 164h7v1h-7zM48 164h3v1h-3zM52 164h6v1h-6zM59 164h2v1h-2zM62 164h2v1h-2zM65 164h5v1h-5zM71 164h1v1h-1zM73 164h9v1h-9zM92 164h5v1h-5zM98 164h4v1h-4zM116 164h4v1h-4zM121 164h1v1h-1zM123 164h2v1h-2zM126 164h7v1h-7zM134 164h3v1h-3zM138 164h4v1h-4zM143 164h4v1h-4zM148 164h2v1h-2zM151 164h8v1h-8zM160 164h1v1h-1zM162 164h2v1h-2zM165 164h7v1h-7zM173 164h1v1h-1zM175 164h3v1h-3zM179 164h6v1h-6zM186 164h8v1h-8zM195 164h2v1h-2zM3 165h1v1h-1zM5 165h8v1h-8zM14 165h1v1h-1zM16 165h5v1h-5zM22 165h1v1h-1zM24 165h3v1h-3zM28 165h1v1h-1zM30 165h1v1h-1zM32 165h1v1h-1zM34 165h1v1h-1zM36 165h1v1h-1zM38 165h3v1h-3zM42 165h1v1h-1zM44 165h1v1h-1zM46 165h3v1h-3zM50 165h2v1h-2zM53 165h1v1h-1zM55 165h1v1h-1zM57 165h2v1h-2zM60 165h2v1h-2zM63 165h3v1h-3zM67 165h1v1h-1zM69 165h5v1h-5zM75 165h1v1h-1zM77 165h1v1h-1zM79 165h3v1h-3zM92 165h4v1h-4zM97 165h2v1h-2zM100 165h2v1h-2zM116 165h10v1h-10zM127 165h1v1h-1zM129 165h1v1h-1zM131 165h1v1h-1zM133 165h3v1h-3zM137 165h8v1h-8zM146 165h2v1h-2zM149 165h4v1h-4zM154 165h1v1h-1zM156 165h1v1h-1zM158 165h4v1h-4zM163 165h5v1h-5zM169 165h1v1h-1zM171 165h5v1h-5zM177 165h2v1h-2zM180 165h3v1h-3zM184 165h4v1h-4zM189 165h1v1h-1zM191 165h1v1h-1zM193 165h5v1h-5zM3 166h2v1h-2zM6 166h1v1h-1zM8 166h1v1h-1zM10 166h8v1h-8zM19 166h6v1h-6zM26 166h13v1h-13zM40 166h6v1h-6zM47 166h4v1h-4zM52 166h8v1h-8zM61 166h3v1h-3zM65 166h4v1h-4zM70 166h1v1h-1zM72 166h10v1h-10zM91 166h4v1h-4zM96 166h2v1h-2zM99 166h2v1h-2zM116 166h3v1h-3zM120 166h1v1h-1zM122 166h1v1h-1zM124 166h9v1h-9zM134 166h1v1h-1zM136 166h5v1h-5zM142 166h1v1h-1zM144 166h3v1h-3zM148 166h2v1h-2zM151 166h1v1h-1zM153 166h6v1h-6zM160 166h4v1h-4zM165 166h1v1h-1zM167 166h4v1h-4zM172 166h1v1h-1zM174 166h4v1h-4zM179 166h3v1h-3zM183 166h2v1h-2zM186 166h1v1h-1zM188 166h6v1h-6zM195 166h1v1h-1zM197 166h1v1h-1zM2 167h1v1h-1zM4 167h7v1h-7zM12 167h1v1h-1zM14 167h1v1h-1zM16 167h5v1h-5zM22 167h1v1h-1zM24 167h3v1h-3zM28 167h1v1h-1zM30 167h1v1h-1zM32 167h1v1h-1zM34 167h1v1h-1zM36 167h1v1h-1zM38 167h4v1h-4zM43 167h1v1h-1zM45 167h2v1h-2zM48 167h1v1h-1zM50 167h3v1h-3zM54 167h1v1h-1zM56 167h1v1h-1zM58 167h4v1h-4zM63 167h2v1h-2zM66 167h1v1h-1zM68 167h4v1h-4zM73 167h1v1h-1zM75 167h1v1h-1zM77 167h1v1h-1zM79 167h3v1h-3zM91 167h2v1h-2zM94 167h6v1h-6zM116 167h10v1h-10zM127 167h1v1h-1zM129 167h1v1h-1zM131 167h1v1h-1zM133 167h4v1h-4zM138 167h4v1h-4zM143 167h2v1h-2zM146 167h3v1h-3zM150 167h5v1h-5zM156 167h1v1h-1zM158 167h4v1h-4zM163 167h6v1h-6zM170 167h6v1h-6zM177 167h6v1h-6zM184 167h5v1h-5zM190 167h2v1h-2zM193 167h5v1h-5zM3 168h2v1h-2zM6 168h1v1h-1zM8 168h1v1h-1zM10 168h9v1h-9zM20 168h4v1h-4zM25 168h14v1h-14zM40 168h5v1h-5zM46 168h5v1h-5zM52 168h7v1h-7zM60 168h1v1h-1zM62 168h6v1h-6zM69 168h1v1h-1zM71 168h12v1h-12zM90 168h5v1h-5zM96 168h1v1h-1zM98 168h1v1h-1zM115 168h4v1h-4zM120 168h1v1h-1zM122 168h1v1h-1zM124 168h1v1h-1zM126 168h7v1h-7zM134 168h1v1h-1zM136 168h4v1h-4zM141 168h3v1h-3zM145 168h2v1h-2zM148 168h3v1h-3zM152 168h1v1h-1zM154 168h5v1h-5zM160 168h4v1h-4zM165 168h1v1h-1zM167 168h1v1h-1zM169 168h2v1h-2zM172 168h1v1h-1zM174 168h1v1h-1zM176 168h2v1h-2zM179 168h3v1h-3zM183 168h2v1h-2zM186 168h8v1h-8zM195 168h1v1h-1zM197 168h1v1h-1zM2 169h2v1h-2zM5 169h9v1h-9zM15 169h1v1h-1zM17 169h5v1h-5zM23 169h2v1h-2zM26 169h1v1h-1zM28 169h1v1h-1zM30 169h1v1h-1zM32 169h1v1h-1zM34 169h1v1h-1zM36 169h1v1h-1zM38 169h3v1h-3zM42 169h1v1h-1zM44 169h3v1h-3zM48 169h1v1h-1zM50 169h3v1h-3zM54 169h1v1h-1zM56 169h1v1h-1zM58 169h2v1h-2zM61 169h2v1h-2zM64 169h1v1h-1zM66 169h1v1h-1zM68 169h5v1h-5zM74 169h1v1h-1zM76 169h1v1h-1zM78 169h1v1h-1zM80 169h3v1h-3zM90 169h9v1h-9zM115 169h13v1h-13zM129 169h1v1h-1zM131 169h1v1h-1zM133 169h3v1h-3zM137 169h5v1h-5zM143 169h3v1h-3zM147 169h3v1h-3zM151 169h6v1h-6zM158 169h4v1h-4zM163 169h6v1h-6zM170 169h19v1h-19zM190 169h2v1h-2zM193 169h5v1h-5zM3 170h3v1h-3zM7 170h1v1h-1zM9 170h1v1h-1zM11 170h9v1h-9zM21 170h17v1h-17zM39 170h5v1h-5zM45 170h5v1h-5zM51 170h10v1h-10zM62 170h7v1h-7zM70 170h1v1h-1zM72 170h11v1h-11zM89 170h4v1h-4zM94 170h1v1h-1zM96 170h1v1h-1zM115 170h3v1h-3zM119 170h1v1h-1zM121 170h1v1h-1zM123 170h1v1h-1zM125 170h1v1h-1zM127 170h6v1h-6zM134 170h1v1h-1zM136 170h3v1h-3zM140 170h1v1h-1zM142 170h2v1h-2zM145 170h3v1h-3zM149 170h3v1h-3zM153 170h1v1h-1zM155 170h4v1h-4zM160 170h1v1h-1zM162 170h2v1h-2zM165 170h2v1h-2zM168 170h3v1h-3zM172 170h1v1h-1zM174 170h1v1h-1zM176 170h1v1h-1zM178 170h3v1h-3zM182 170h1v1h-1zM184 170h2v1h-2zM187 170h7v1h-7zM195 170h1v1h-1zM197 170h1v1h-1zM3 171h2v1h-2zM6 171h6v1h-6zM13 171h3v1h-3zM17 171h7v1h-7zM25 171h1v1h-1zM27 171h1v1h-1zM29 171h1v1h-1zM31 171h1v1h-1zM33 171h1v1h-1zM35 171h1v1h-1zM37 171h3v1h-3zM41 171h1v1h-1zM43 171h3v1h-3zM47 171h1v1h-1zM49 171h3v1h-3zM53 171h1v1h-1zM55 171h1v1h-1zM57 171h1v1h-1zM59 171h3v1h-3zM63 171h1v1h-1zM65 171h1v1h-1zM67 171h1v1h-1zM69 171h5v1h-5zM75 171h1v1h-1zM77 171h1v1h-1zM79 171h4v1h-4zM89 171h8v1h-8zM115 171h13v1h-13zM129 171h1v1h-1zM131 171h1v1h-1zM133 171h9v1h-9zM143 171h4v1h-4zM148 171h2v1h-2zM151 171h4v1h-4zM156 171h1v1h-1zM158 171h7v1h-7zM166 171h4v1h-4zM171 171h10v1h-10zM182 171h3v1h-3zM186 171h6v1h-6zM193 171h5v1h-5zM2 172h2v1h-2zM5 172h2v1h-2zM8 172h1v1h-1zM10 172h3v1h-3zM14 172h7v1h-7zM22 172h16v1h-16zM39 172h5v1h-5zM45 172h4v1h-4zM50 172h11v1h-11zM62 172h3v1h-3zM66 172h3v1h-3zM70 172h1v1h-1zM72 172h1v1h-1zM74 172h9v1h-9zM89 172h6v1h-6zM105 172h1v1h-1zM114 172h4v1h-4zM119 172h1v1h-1zM121 172h1v1h-1zM123 172h1v1h-1zM125 172h1v1h-1zM127 172h6v1h-6zM134 172h1v1h-1zM136 172h3v1h-3zM140 172h3v1h-3zM144 172h1v1h-1zM146 172h3v1h-3zM150 172h2v1h-2zM153 172h6v1h-6zM160 172h2v1h-2zM163 172h4v1h-4zM168 172h4v1h-4zM173 172h1v1h-1zM175 172h1v1h-1zM177 172h6v1h-6zM184 172h5v1h-5zM190 172h3v1h-3zM194 172h1v1h-1zM196 172h2v1h-2zM3 173h3v1h-3zM7 173h4v1h-4zM12 173h3v1h-3zM16 173h1v1h-1zM18 173h6v1h-6zM25 173h1v1h-1zM27 173h1v1h-1zM29 173h1v1h-1zM31 173h1v1h-1zM33 173h1v1h-1zM35 173h1v1h-1zM37 173h5v1h-5zM43 173h4v1h-4zM48 173h2v1h-2zM51 173h1v1h-1zM53 173h1v1h-1zM55 173h1v1h-1zM57 173h1v1h-1zM59 173h4v1h-4zM64 173h3v1h-3zM68 173h9v1h-9zM78 173h1v1h-1zM80 173h3v1h-3zM88 173h6v1h-6zM114 173h15v1h-15zM130 173h1v1h-1zM132 173h1v1h-1zM134 173h4v1h-4zM139 173h2v1h-2zM142 173h5v1h-5zM148 173h6v1h-6zM155 173h2v1h-2zM158 173h2v1h-2zM161 173h4v1h-4zM166 173h3v1h-3zM170 173h1v1h-1zM172 173h9v1h-9zM182 173h9v1h-9zM192 173h4v1h-4zM197 173h1v1h-1zM2 174h2v1h-2zM5 174h3v1h-3zM9 174h1v1h-1zM11 174h2v1h-2zM14 174h8v1h-8zM23 174h15v1h-15zM39 174h1v1h-1zM41 174h3v1h-3zM45 174h14v1h-14zM60 174h2v1h-2zM63 174h2v1h-2zM66 174h2v1h-2zM69 174h1v1h-1zM71 174h1v1h-1zM73 174h1v1h-1zM75 174h1v1h-1zM77 174h7v1h-7zM88 174h5v1h-5zM114 174h3v1h-3zM118 174h1v1h-1zM120 174h1v1h-1zM122 174h1v1h-1zM124 174h1v1h-1zM126 174h1v1h-1zM128 174h6v1h-6zM135 174h5v1h-5zM141 174h2v1h-2zM144 174h1v1h-1zM146 174h3v1h-3zM150 174h1v1h-1zM152 174h10v1h-10zM163 174h1v1h-1zM165 174h2v1h-2zM168 174h5v1h-5zM174 174h1v1h-1zM176 174h4v1h-4zM181 174h2v1h-2zM184 174h3v1h-3zM188 174h2v1h-2zM191 174h2v1h-2zM194 174h4v1h-4zM3 175h3v1h-3zM7 175h11v1h-11zM19 175h6v1h-6zM26 175h1v1h-1zM28 175h1v1h-1zM30 175h1v1h-1zM32 175h1v1h-1zM34 175h1v1h-1zM36 175h1v1h-1zM38 175h4v1h-4zM43 175h4v1h-4zM48 175h1v1h-1zM50 175h1v1h-1zM52 175h1v1h-1zM54 175h1v1h-1zM56 175h1v1h-1zM58 175h5v1h-5zM64 175h2v1h-2zM67 175h13v1h-13zM81 175h3v1h-3zM88 175h5v1h-5zM105 175h1v1h-1zM114 175h15v1h-15zM130 175h1v1h-1zM132 175h1v1h-1zM134 175h4v1h-4zM139 175h3v1h-3zM143 175h4v1h-4zM148 175h5v1h-5zM154 175h2v1h-2zM157 175h1v1h-1zM159 175h1v1h-1zM161 175h9v1h-9zM171 175h1v1h-1zM173 175h6v1h-6zM180 175h8v1h-8zM189 175h2v1h-2zM192 175h4v1h-4zM197 175h1v1h-1zM2 176h2v1h-2zM5 176h3v1h-3zM9 176h1v1h-1zM11 176h1v1h-1zM13 176h2v1h-2zM16 176h6v1h-6zM23 176h16v1h-16zM40 176h4v1h-4zM45 176h1v1h-1zM47 176h11v1h-11zM59 176h6v1h-6zM66 176h2v1h-2zM69 176h1v1h-1zM71 176h1v1h-1zM73 176h1v1h-1zM75 176h1v1h-1zM77 176h1v1h-1zM79 176h5v1h-5zM88 176h4v1h-4zM104 176h2v1h-2zM113 176h4v1h-4zM118 176h1v1h-1zM120 176h1v1h-1zM122 176h1v1h-1zM124 176h1v1h-1zM126 176h1v1h-1zM128 176h3v1h-3zM132 176h7v1h-7zM140 176h4v1h-4zM145 176h3v1h-3zM149 176h2v1h-2zM152 176h10v1h-10zM163 176h1v1h-1zM165 176h1v1h-1zM167 176h1v1h-1zM169 176h5v1h-5zM175 176h5v1h-5zM181 176h6v1h-6zM188 176h5v1h-5zM194 176h4v1h-4zM3 177h3v1h-3zM7 177h7v1h-7zM15 177h3v1h-3zM19 177h5v1h-5zM25 177h2v1h-2zM28 177h1v1h-1zM30 177h1v1h-1zM32 177h1v1h-1zM34 177h1v1h-1zM36 177h1v1h-1zM38 177h4v1h-4zM43 177h7v1h-7zM51 177h1v1h-1zM53 177h1v1h-1zM55 177h1v1h-1zM57 177h3v1h-3zM61 177h2v1h-2zM64 177h3v1h-3zM68 177h16v1h-16zM88 177h3v1h-3zM103 177h1v1h-1zM105 177h1v1h-1zM113 177h16v1h-16zM130 177h3v1h-3zM134 177h3v1h-3zM138 177h3v1h-3zM142 177h1v1h-1zM144 177h2v1h-2zM147 177h2v1h-2zM150 177h5v1h-5zM156 177h1v1h-1zM158 177h2v1h-2zM161 177h8v1h-8zM170 177h2v1h-2zM173 177h3v1h-3zM177 177h2v1h-2zM180 177h6v1h-6zM187 177h2v1h-2zM190 177h1v1h-1zM192 177h4v1h-4zM197 177h1v1h-1zM2 178h2v1h-2zM5 178h3v1h-3zM9 178h2v1h-2zM12 178h1v1h-1zM14 178h2v1h-2zM17 178h9v1h-9zM27 178h12v1h-12zM40 178h1v1h-1zM42 178h2v1h-2zM45 178h1v1h-1zM47 178h1v1h-1zM49 178h8v1h-8zM58 178h5v1h-5zM64 178h1v1h-1zM66 178h3v1h-3zM70 178h1v1h-1zM72 178h1v1h-1zM74 178h1v1h-1zM76 178h1v1h-1zM78 178h1v1h-1zM80 178h4v1h-4zM87 178h3v1h-3zM102 178h3v1h-3zM113 178h3v1h-3zM117 178h1v1h-1zM119 178h1v1h-1zM121 178h1v1h-1zM123 178h1v1h-1zM125 178h1v1h-1zM127 178h1v1h-1zM129 178h2v1h-2zM132 178h6v1h-6zM139 178h1v1h-1zM141 178h4v1h-4zM146 178h5v1h-5zM152 178h1v1h-1zM154 178h5v1h-5zM160 178h2v1h-2zM163 178h1v1h-1zM165 178h1v1h-1zM167 178h4v1h-4zM172 178h9v1h-9zM182 178h2v1h-2zM185 178h8v1h-8zM194 178h4v1h-4zM3 179h3v1h-3zM7 179h7v1h-7zM15 179h9v1h-9zM25 179h4v1h-4zM30 179h2v1h-2zM33 179h2v1h-2zM36 179h1v1h-1zM38 179h13v1h-13zM52 179h1v1h-1zM54 179h1v1h-1zM56 179h4v1h-4zM61 179h6v1h-6zM68 179h2v1h-2zM71 179h9v1h-9zM81 179h3v1h-3zM87 179h2v1h-2zM102 179h1v1h-1zM105 179h1v1h-1zM113 179h16v1h-16zM130 179h2v1h-2zM133 179h2v1h-2zM136 179h1v1h-1zM138 179h5v1h-5zM144 179h5v1h-5zM150 179h7v1h-7zM158 179h11v1h-11zM170 179h4v1h-4zM175 179h4v1h-4zM180 179h3v1h-3zM184 179h2v1h-2zM187 179h1v1h-1zM189 179h2v1h-2zM192 179h4v1h-4zM197 179h1v1h-1zM2 180h2v1h-2zM5 180h3v1h-3zM9 180h7v1h-7zM17 180h1v1h-1zM19 180h7v1h-7zM27 180h4v1h-4zM32 180h7v1h-7zM40 180h1v1h-1zM42 180h1v1h-1zM44 180h1v1h-1zM46 180h1v1h-1zM48 180h1v1h-1zM50 180h6v1h-6zM57 180h1v1h-1zM59 180h5v1h-5zM65 180h4v1h-4zM70 180h2v1h-2zM73 180h1v1h-1zM75 180h1v1h-1zM77 180h8v1h-8zM87 180h2v1h-2zM100 180h2v1h-2zM103 180h2v1h-2zM112 180h4v1h-4zM117 180h1v1h-1zM119 180h1v1h-1zM121 180h1v1h-1zM123 180h1v1h-1zM125 180h1v1h-1zM127 180h3v1h-3zM131 180h8v1h-8zM140 180h1v1h-1zM142 180h3v1h-3zM146 180h1v1h-1zM148 180h4v1h-4zM153 180h2v1h-2zM156 180h3v1h-3zM160 180h1v1h-1zM162 180h1v1h-1zM164 180h1v1h-1zM166 180h1v1h-1zM168 180h3v1h-3zM172 180h10v1h-10zM183 180h2v1h-2zM186 180h4v1h-4zM191 180h2v1h-2zM194 180h4v1h-4zM2 181h4v1h-4zM7 181h3v1h-3zM11 181h3v1h-3zM15 181h9v1h-9zM25 181h4v1h-4zM30 181h3v1h-3zM34 181h1v1h-1zM36 181h1v1h-1zM38 181h14v1h-14zM53 181h1v1h-1zM55 181h6v1h-6zM62 181h3v1h-3zM66 181h1v1h-1zM68 181h2v1h-2zM71 181h6v1h-6zM78 181h1v1h-1zM80 181h1v1h-1zM82 181h3v1h-3zM87 181h1v1h-1zM100 181h1v1h-1zM102 181h1v1h-1zM105 181h1v1h-1zM112 181h16v1h-16zM129 181h2v1h-2zM132 181h4v1h-4zM137 181h1v1h-1zM139 181h4v1h-4zM144 181h6v1h-6zM151 181h18v1h-18zM170 181h4v1h-4zM175 181h3v1h-3zM179 181h1v1h-1zM181 181h13v1h-13zM195 181h1v1h-1zM197 181h1v1h-1zM2 182h1v1h-1zM4 182h4v1h-4zM9 182h7v1h-7zM17 182h2v1h-2zM20 182h6v1h-6zM27 182h4v1h-4zM32 182h7v1h-7zM40 182h2v1h-2zM43 182h2v1h-2zM46 182h2v1h-2zM49 182h1v1h-1zM51 182h5v1h-5zM57 182h1v1h-1zM59 182h7v1h-7zM67 182h5v1h-5zM73 182h1v1h-1zM75 182h10v1h-10zM98 182h2v1h-2zM102 182h1v1h-1zM104 182h2v1h-2zM112 182h3v1h-3zM116 182h1v1h-1zM118 182h1v1h-1zM120 182h1v1h-1zM122 182h1v1h-1zM124 182h1v1h-1zM126 182h1v1h-1zM128 182h2v1h-2zM131 182h4v1h-4zM136 182h4v1h-4zM141 182h3v1h-3zM145 182h1v1h-1zM147 182h5v1h-5zM153 182h1v1h-1zM155 182h2v1h-2zM158 182h2v1h-2zM161 182h1v1h-1zM163 182h1v1h-1zM165 182h1v1h-1zM167 182h4v1h-4zM172 182h10v1h-10zM183 182h5v1h-5zM189 182h1v1h-1zM191 182h7v1h-7zM2 183h4v1h-4zM7 183h4v1h-4zM12 183h12v1h-12zM25 183h4v1h-4zM30 183h4v1h-4zM35 183h2v1h-2zM38 183h2v1h-2zM41 183h5v1h-5zM47 183h5v1h-5zM53 183h2v1h-2zM56 183h4v1h-4zM61 183h1v1h-1zM63 183h2v1h-2zM66 183h3v1h-3zM70 183h1v1h-1zM72 183h5v1h-5zM78 183h1v1h-1zM80 183h1v1h-1zM82 183h3v1h-3zM97 183h1v1h-1zM99 183h1v1h-1zM101 183h1v1h-1zM104 183h1v1h-1zM111 183h18v1h-18zM130 183h8v1h-8zM139 183h3v1h-3zM143 183h5v1h-5zM149 183h1v1h-1zM151 183h7v1h-7zM159 183h10v1h-10zM170 183h2v1h-2zM173 183h4v1h-4zM178 183h1v1h-1zM180 183h6v1h-6zM187 183h6v1h-6zM194 183h2v1h-2zM197 183h1v1h-1zM2 184h1v1h-1zM4 184h1v1h-1zM6 184h2v1h-2zM9 184h8v1h-8zM18 184h2v1h-2zM21 184h5v1h-5zM27 184h1v1h-1zM29 184h2v1h-2zM32 184h4v1h-4zM37 184h5v1h-5zM43 184h1v1h-1zM45 184h3v1h-3zM49 184h5v1h-5zM55 184h2v1h-2zM58 184h8v1h-8zM67 184h5v1h-5zM73 184h1v1h-1zM75 184h1v1h-1zM77 184h8v1h-8zM96 184h1v1h-1zM98 184h1v1h-1zM100 184h1v1h-1zM102 184h1v1h-1zM104 184h1v1h-1zM111 184h3v1h-3zM115 184h1v1h-1zM117 184h1v1h-1zM119 184h1v1h-1zM121 184h1v1h-1zM123 184h1v1h-1zM125 184h1v1h-1zM127 184h3v1h-3zM131 184h3v1h-3zM135 184h1v1h-1zM137 184h3v1h-3zM141 184h3v1h-3zM145 184h8v1h-8zM154 184h2v1h-2zM157 184h3v1h-3zM161 184h1v1h-1zM163 184h1v1h-1zM165 184h1v1h-1zM167 184h20v1h-20zM188 184h1v1h-1zM190 184h1v1h-1zM192 184h3v1h-3zM196 184h2v1h-2zM3 185h7v1h-7zM11 185h1v1h-1zM13 185h1v1h-1zM15 185h19v1h-19zM35 185h5v1h-5zM41 185h9v1h-9zM51 185h1v1h-1zM53 185h7v1h-7zM61 185h1v1h-1zM63 185h5v1h-5zM69 185h1v1h-1zM71 185h7v1h-7zM79 185h2v1h-2zM82 185h4v1h-4zM95 185h1v1h-1zM97 185h1v1h-1zM99 185h1v1h-1zM105 185h1v1h-1zM111 185h17v1h-17zM129 185h4v1h-4zM134 185h4v1h-4zM139 185h3v1h-3zM143 185h4v1h-4zM148 185h3v1h-3zM152 185h6v1h-6zM159 185h9v1h-9zM169 185h1v1h-1zM171 185h2v1h-2zM174 185h4v1h-4zM179 185h7v1h-7zM187 185h11v1h-11zM2 186h2v1h-2zM5 186h1v1h-1zM7 186h2v1h-2zM10 186h9v1h-9zM20 186h5v1h-5zM26 186h1v1h-1zM28 186h2v1h-2zM31 186h1v1h-1zM33 186h3v1h-3zM37 186h1v1h-1zM39 186h3v1h-3zM43 186h2v1h-2zM46 186h1v1h-1zM48 186h6v1h-6zM55 186h1v1h-1zM57 186h1v1h-1zM59 186h7v1h-7zM67 186h4v1h-4zM72 186h1v1h-1zM74 186h1v1h-1zM76 186h4v1h-4zM81 186h5v1h-5zM94 186h1v1h-1zM96 186h1v1h-1zM100 186h1v1h-1zM102 186h1v1h-1zM104 186h2v1h-2zM111 186h3v1h-3zM115 186h1v1h-1zM117 186h1v1h-1zM119 186h1v1h-1zM121 186h1v1h-1zM123 186h1v1h-1zM125 186h1v1h-1zM127 186h2v1h-2zM130 186h5v1h-5zM136 186h3v1h-3zM140 186h4v1h-4zM145 186h4v1h-4zM150 186h4v1h-4zM155 186h5v1h-5zM161 186h1v1h-1zM163 186h2v1h-2zM166 186h16v1h-16zM183 186h1v1h-1zM185 186h2v1h-2zM188 186h1v1h-1zM190 186h1v1h-1zM192 186h1v1h-1zM194 186h2v1h-2zM197 186h1v1h-1zM3 187h4v1h-4zM8 187h5v1h-5zM14 187h20v1h-20zM35 187h5v1h-5zM41 187h2v1h-2zM44 187h7v1h-7zM52 187h1v1h-1zM54 187h7v1h-7zM62 187h1v1h-1zM64 187h4v1h-4zM69 187h1v1h-1zM71 187h7v1h-7zM79 187h3v1h-3zM83 187h4v1h-4zM93 187h1v1h-1zM95 187h1v1h-1zM97 187h1v1h-1zM99 187h1v1h-1zM101 187h1v1h-1zM104 187h2v1h-2zM110 187h17v1h-17zM128 187h5v1h-5zM134 187h3v1h-3zM138 187h4v1h-4zM143 187h4v1h-4zM148 187h8v1h-8zM157 187h1v1h-1zM159 187h4v1h-4zM164 187h3v1h-3zM168 187h1v1h-1zM170 187h2v1h-2zM173 187h4v1h-4zM178 187h7v1h-7zM186 187h8v1h-8zM195 187h3v1h-3zM2 188h2v1h-2zM5 188h4v1h-4zM10 188h1v1h-1zM12 188h3v1h-3zM16 188h9v1h-9zM26 188h2v1h-2zM29 188h1v1h-1zM31 188h4v1h-4zM36 188h1v1h-1zM38 188h7v1h-7zM46 188h1v1h-1zM48 188h1v1h-1zM50 188h5v1h-5zM56 188h1v1h-1zM58 188h1v1h-1zM60 188h6v1h-6zM67 188h5v1h-5zM73 188h1v1h-1zM75 188h1v1h-1zM77 188h3v1h-3zM81 188h5v1h-5zM92 188h1v1h-1zM94 188h1v1h-1zM97 188h1v1h-1zM103 188h3v1h-3zM110 188h4v1h-4zM115 188h1v1h-1zM117 188h1v1h-1zM119 188h1v1h-1zM121 188h1v1h-1zM123 188h1v1h-1zM125 188h3v1h-3zM129 188h6v1h-6zM136 188h3v1h-3zM140 188h1v1h-1zM142 188h2v1h-2zM145 188h5v1h-5zM151 188h1v1h-1zM153 188h7v1h-7zM161 188h4v1h-4zM166 188h13v1h-13zM180 188h1v1h-1zM182 188h1v1h-1zM184 188h3v1h-3zM188 188h2v1h-2zM191 188h5v1h-5zM197 188h1v1h-1zM2 189h5v1h-5zM8 189h5v1h-5zM14 189h2v1h-2zM17 189h4v1h-4zM22 189h4v1h-4zM27 189h6v1h-6zM34 189h7v1h-7zM42 189h1v1h-1zM44 189h9v1h-9zM54 189h7v1h-7zM62 189h1v1h-1zM64 189h3v1h-3zM68 189h1v1h-1zM70 189h1v1h-1zM72 189h6v1h-6zM79 189h3v1h-3zM83 189h4v1h-4zM92 189h1v1h-1zM94 189h1v1h-1zM96 189h1v1h-1zM98 189h1v1h-1zM100 189h1v1h-1zM103 189h3v1h-3zM110 189h15v1h-15zM126 189h1v1h-1zM128 189h5v1h-5zM134 189h3v1h-3zM138 189h7v1h-7zM146 189h2v1h-2zM149 189h6v1h-6zM156 189h2v1h-2zM159 189h4v1h-4zM164 189h5v1h-5zM170 189h2v1h-2zM173 189h3v1h-3zM177 189h8v1h-8zM186 189h6v1h-6zM193 189h2v1h-2zM196 189h2v1h-2zM2 190h3v1h-3zM6 190h3v1h-3zM10 190h8v1h-8zM19 190h9v1h-9zM29 190h2v1h-2zM32 190h3v1h-3zM36 190h1v1h-1zM38 190h1v1h-1zM40 190h5v1h-5zM46 190h2v1h-2zM49 190h1v1h-1zM51 190h4v1h-4zM56 190h1v1h-1zM58 190h14v1h-14zM73 190h1v1h-1zM75 190h1v1h-1zM77 190h3v1h-3zM81 190h6v1h-6zM91 190h1v1h-1zM93 190h1v1h-1zM101 190h5v1h-5zM110 190h3v1h-3zM114 190h1v1h-1zM116 190h1v1h-1zM118 190h1v1h-1zM120 190h1v1h-1zM122 190h1v1h-1zM124 190h7v1h-7zM132 190h3v1h-3zM136 190h3v1h-3zM140 190h12v1h-12zM153 190h4v1h-4zM158 190h2v1h-2zM161 190h3v1h-3zM165 190h1v1h-1zM167 190h12v1h-12zM180 190h1v1h-1zM182 190h1v1h-1zM184 190h3v1h-3zM188 190h1v1h-1zM190 190h4v1h-4zM195 190h3v1h-3zM3 191h7v1h-7zM11 191h2v1h-2zM14 191h1v1h-1zM16 191h1v1h-1zM18 191h8v1h-8zM27 191h6v1h-6zM34 191h9v1h-9zM44 191h2v1h-2zM47 191h6v1h-6zM54 191h6v1h-6zM61 191h1v1h-1zM63 191h1v1h-1zM65 191h3v1h-3zM69 191h1v1h-1zM71 191h7v1h-7zM79 191h4v1h-4zM84 191h3v1h-3zM90 191h2v1h-2zM93 191h1v1h-1zM95 191h1v1h-1zM97 191h1v1h-1zM99 191h1v1h-1zM101 191h2v1h-2zM104 191h2v1h-2zM110 191h15v1h-15zM126 191h1v1h-1zM128 191h5v1h-5zM134 191h3v1h-3zM138 191h12v1h-12zM151 191h4v1h-4zM156 191h6v1h-6zM163 191h5v1h-5zM169 191h2v1h-2zM172 191h5v1h-5zM178 191h2v1h-2zM181 191h11v1h-11zM193 191h5v1h-5zM2 192h5v1h-5zM8 192h11v1h-11zM20 192h9v1h-9zM30 192h5v1h-5zM36 192h1v1h-1zM38 192h1v1h-1zM40 192h1v1h-1zM42 192h6v1h-6zM49 192h1v1h-1zM51 192h3v1h-3zM55 192h1v1h-1zM57 192h1v1h-1zM59 192h10v1h-10zM70 192h2v1h-2zM73 192h1v1h-1zM75 192h5v1h-5zM81 192h6v1h-6zM89 192h1v1h-1zM92 192h1v1h-1zM95 192h1v1h-1zM100 192h2v1h-2zM103 192h3v1h-3zM109 192h4v1h-4zM114 192h1v1h-1zM116 192h2v1h-2zM119 192h1v1h-1zM121 192h1v1h-1zM123 192h3v1h-3zM127 192h4v1h-4zM132 192h15v1h-15zM148 192h5v1h-5zM154 192h3v1h-3zM158 192h1v1h-1zM160 192h4v1h-4zM165 192h13v1h-13zM179 192h7v1h-7zM187 192h2v1h-2zM190 192h5v1h-5zM196 192h2v1h-2zM2 193h2v1h-2zM5 193h7v1h-7zM13 193h9v1h-9zM23 193h4v1h-4zM28 193h3v1h-3zM32 193h1v1h-1zM34 193h9v1h-9zM44 193h2v1h-2zM47 193h5v1h-5zM53 193h8v1h-8zM62 193h2v1h-2zM65 193h1v1h-1zM67 193h3v1h-3zM71 193h5v1h-5zM77 193h1v1h-1zM79 193h3v1h-3zM83 193h1v1h-1zM85 193h3v1h-3zM91 193h1v1h-1zM94 193h1v1h-1zM97 193h1v1h-1zM99 193h4v1h-4zM104 193h3v1h-3zM109 193h7v1h-7zM117 193h6v1h-6zM124 193h1v1h-1zM126 193h8v1h-8zM135 193h1v1h-1zM137 193h1v1h-1zM139 193h2v1h-2zM145 193h6v1h-6zM152 193h10v1h-10zM163 193h4v1h-4zM168 193h2v1h-2zM171 193h5v1h-5zM177 193h10v1h-10zM188 193h3v1h-3zM192 193h6v1h-6zM2 194h1v1h-1zM4 194h5v1h-5zM10 194h3v1h-3zM14 194h21v1h-21zM36 194h2v1h-2zM39 194h6v1h-6zM46 194h3v1h-3zM50 194h4v1h-4zM55 194h2v1h-2zM58 194h1v1h-1zM60 194h3v1h-3zM64 194h5v1h-5zM70 194h2v1h-2zM73 194h1v1h-1zM75 194h5v1h-5zM81 194h7v1h-7zM89 194h1v1h-1zM92 194h1v1h-1zM98 194h2v1h-2zM101 194h4v1h-4zM109 194h3v1h-3zM113 194h5v1h-5zM119 194h1v1h-1zM121 194h4v1h-4zM126 194h4v1h-4zM131 194h10v1h-10zM145 194h4v1h-4zM150 194h4v1h-4zM155 194h1v1h-1zM157 194h1v1h-1zM159 194h1v1h-1zM161 194h3v1h-3zM165 194h19v1h-19zM185 194h12v1h-12zM2 195h4v1h-4zM7 195h4v1h-4zM12 195h4v1h-4zM17 195h11v1h-11zM29 195h1v1h-1zM31 195h2v1h-2zM34 195h2v1h-2zM37 195h4v1h-4zM42 195h1v1h-1zM44 195h3v1h-3zM48 195h4v1h-4zM53 195h2v1h-2zM56 195h5v1h-5zM62 195h8v1h-8zM71 195h5v1h-5zM77 195h1v1h-1zM79 195h5v1h-5zM85 195h3v1h-3zM91 195h1v1h-1zM94 195h1v1h-1zM96 195h5v1h-5zM102 195h1v1h-1zM104 195h3v1h-3zM109 195h6v1h-6zM116 195h1v1h-1zM118 195h4v1h-4zM123 195h1v1h-1zM125 195h8v1h-8zM134 195h2v1h-2zM137 195h4v1h-4zM145 195h7v1h-7zM153 195h9v1h-9zM163 195h3v1h-3zM167 195h1v1h-1zM169 195h1v1h-1zM171 195h4v1h-4zM176 195h9v1h-9zM186 195h1v1h-1zM188 195h1v1h-1zM190 195h4v1h-4zM195 195h3v1h-3zM2 196h1v1h-1zM4 196h9v1h-9zM14 196h1v1h-1zM16 196h22v1h-22zM39 196h10v1h-10zM50 196h7v1h-7zM58 196h5v1h-5zM64 196h1v1h-1zM66 196h5v1h-5zM72 196h1v1h-1zM74 196h6v1h-6zM81 196h1v1h-1zM83 196h5v1h-5zM89 196h1v1h-1zM93 196h1v1h-1zM96 196h2v1h-2zM99 196h3v1h-3zM103 196h3v1h-3zM109 196h3v1h-3zM113 196h6v1h-6zM120 196h9v1h-9zM130 196h2v1h-2zM133 196h8v1h-8zM145 196h10v1h-10zM156 196h1v1h-1zM158 196h1v1h-1zM160 196h4v1h-4zM165 196h16v1h-16zM182 196h1v1h-1zM184 196h12v1h-12zM197 196h1v1h-1zM2 197h2v1h-2zM5 197h2v1h-2zM8 197h8v1h-8zM17 197h2v1h-2zM20 197h9v1h-9zM30 197h2v1h-2zM33 197h1v1h-1zM35 197h1v1h-1zM37 197h4v1h-4zM42 197h1v1h-1zM44 197h1v1h-1zM46 197h1v1h-1zM48 197h2v1h-2zM51 197h2v1h-2zM54 197h1v1h-1zM56 197h3v1h-3zM60 197h1v1h-1zM62 197h8v1h-8zM71 197h4v1h-4zM76 197h1v1h-1zM78 197h1v1h-1zM80 197h9v1h-9zM91 197h1v1h-1zM95 197h5v1h-5zM101 197h2v1h-2zM104 197h3v1h-3zM108 197h7v1h-7zM116 197h1v1h-1zM118 197h2v1h-2zM121 197h1v1h-1zM123 197h1v1h-1zM125 197h10v1h-10zM136 197h5v1h-5zM145 197h4v1h-4zM150 197h3v1h-3zM154 197h25v1h-25zM180 197h4v1h-4zM185 197h1v1h-1zM187 197h7v1h-7zM195 197h3v1h-3zM2 198h4v1h-4zM7 198h11v1h-11zM19 198h19v1h-19zM39 198h1v1h-1zM41 198h11v1h-11zM53 198h4v1h-4zM58 198h5v1h-5zM64 198h1v1h-1zM66 198h1v1h-1zM68 198h4v1h-4zM73 198h8v1h-8zM82 198h1v1h-1zM84 198h1v1h-1zM86 198h2v1h-2zM93 198h3v1h-3zM97 198h1v1h-1zM99 198h2v1h-2zM102 198h3v1h-3zM108 198h3v1h-3zM112 198h1v1h-1zM114 198h8v1h-8zM123 198h4v1h-4zM128 198h2v1h-2zM131 198h1v1h-1zM133 198h7v1h-7zM145 198h12v1h-12zM158 198h2v1h-2zM161 198h1v1h-1zM163 198h1v1h-1zM165 198h1v1h-1zM167 198h1v1h-1zM169 198h11v1h-11zM181 198h1v1h-1zM183 198h8v1h-8zM192 198h4v1h-4zM197 198h1v1h-1zM3 199h1v1h-1zM5 199h5v1h-5zM11 199h5v1h-5zM17 199h4v1h-4zM22 199h7v1h-7zM30 199h2v1h-2zM33 199h3v1h-3zM37 199h5v1h-5zM43 199h2v1h-2zM46 199h2v1h-2zM49 199h1v1h-1zM51 199h4v1h-4zM56 199h5v1h-5zM62 199h9v1h-9zM72 199h3v1h-3zM76 199h1v1h-1zM78 199h1v1h-1zM80 199h10v1h-10zM92 199h1v1h-1zM94 199h6v1h-6zM101 199h3v1h-3zM108 199h8v1h-8zM117 199h1v1h-1zM119 199h1v1h-1zM121 199h2v1h-2zM124 199h12v1h-12zM137 199h4v1h-4zM145 199h10v1h-10zM156 199h2v1h-2zM159 199h10v1h-10zM170 199h10v1h-10zM181 199h2v1h-2zM184 199h11v1h-11zM196 199h2v1h-2zM2 200h3v1h-3zM6 200h1v1h-1zM8 200h10v1h-10zM19 200h4v1h-4zM24 200h10v1h-10zM35 200h3v1h-3zM39 200h5v1h-5zM45 200h7v1h-7zM53 200h4v1h-4zM58 200h1v1h-1zM60 200h3v1h-3zM64 200h2v1h-2zM67 200h5v1h-5zM73 200h1v1h-1zM75 200h6v1h-6zM82 200h2v1h-2zM85 200h4v1h-4zM92 200h3v1h-3zM96 200h1v1h-1zM98 200h1v1h-1zM100 200h3v1h-3zM107 200h4v1h-4zM112 200h1v1h-1zM114 200h7v1h-7zM122 200h5v1h-5zM128 200h2v1h-2zM131 200h2v1h-2zM134 200h6v1h-6zM145 200h5v1h-5zM151 200h1v1h-1zM153 200h1v1h-1zM155 200h5v1h-5zM161 200h15v1h-15zM177 200h1v1h-1zM179 200h2v1h-2zM182 200h7v1h-7zM190 200h2v1h-2zM193 200h4v1h-4zM2 201h2v1h-2zM5 201h4v1h-4zM10 201h2v1h-2zM13 201h8v1h-8zM22 201h8v1h-8zM31 201h1v1h-1zM33 201h3v1h-3zM37 201h3v1h-3zM41 201h1v1h-1zM43 201h4v1h-4zM48 201h2v1h-2zM51 201h4v1h-4zM56 201h5v1h-5zM62 201h2v1h-2zM65 201h12v1h-12zM78 201h1v1h-1zM80 201h2v1h-2zM83 201h6v1h-6zM91 201h2v1h-2zM94 201h2v1h-2zM97 201h5v1h-5zM107 201h2v1h-2zM110 201h5v1h-5zM116 201h1v1h-1zM118 201h1v1h-1zM120 201h2v1h-2zM123 201h17v1h-17zM144 201h5v1h-5zM150 201h6v1h-6zM157 201h5v1h-5zM163 201h2v1h-2zM166 201h2v1h-2zM169 201h10v1h-10zM180 201h13v1h-13zM194 201h1v1h-1zM196 201h2v1h-2zM2 202h1v1h-1zM4 202h2v1h-2zM7 202h3v1h-3zM11 202h13v1h-13zM25 202h4v1h-4zM30 202h14v1h-14zM45 202h7v1h-7zM53 202h4v1h-4zM58 202h8v1h-8zM67 202h1v1h-1zM69 202h3v1h-3zM73 202h1v1h-1zM75 202h9v1h-9zM85 202h4v1h-4zM90 202h2v1h-2zM93 202h2v1h-2zM96 202h2v1h-2zM99 202h2v1h-2zM106 202h5v1h-5zM112 202h2v1h-2zM115 202h5v1h-5zM121 202h5v1h-5zM127 202h7v1h-7zM135 202h2v1h-2zM138 202h4v1h-4zM144 202h4v1h-4zM149 202h3v1h-3zM153 202h5v1h-5zM159 202h16v1h-16zM176 202h1v1h-1zM178 202h9v1h-9zM188 202h2v1h-2zM191 202h7v1h-7zM2 203h6v1h-6zM9 203h3v1h-3zM13 203h2v1h-2zM16 203h18v1h-18zM35 203h2v1h-2zM38 203h1v1h-1zM40 203h2v1h-2zM43 203h2v1h-2zM46 203h2v1h-2zM49 203h1v1h-1zM51 203h4v1h-4zM56 203h4v1h-4zM61 203h1v1h-1zM63 203h1v1h-1zM65 203h7v1h-7zM73 203h3v1h-3zM77 203h1v1h-1zM79 203h1v1h-1zM81 203h1v1h-1zM83 203h3v1h-3zM87 203h3v1h-3zM91 203h2v1h-2zM94 203h7v1h-7zM106 203h6v1h-6zM113 203h5v1h-5zM119 203h3v1h-3zM123 203h6v1h-6zM130 203h1v1h-1zM132 203h1v1h-1zM134 203h8v1h-8zM144 203h10v1h-10zM155 203h8v1h-8zM164 203h2v1h-2zM167 203h2v1h-2zM170 203h5v1h-5zM176 203h4v1h-4zM181 203h11v1h-11zM193 203h1v1h-1zM195 203h1v1h-1zM197 203h1v1h-1zM2 204h1v1h-1zM4 204h1v1h-1zM6 204h1v1h-1zM8 204h1v1h-1zM10 204h3v1h-3zM14 204h4v1h-4zM19 204h2v1h-2zM22 204h8v1h-8zM31 204h10v1h-10zM42 204h5v1h-5zM48 204h4v1h-4zM53 204h4v1h-4zM58 204h8v1h-8zM67 204h2v1h-2zM70 204h4v1h-4zM75 204h9v1h-9zM85 204h7v1h-7zM93 204h2v1h-2zM96 204h3v1h-3zM106 204h3v1h-3zM110 204h4v1h-4zM115 204h1v1h-1zM117 204h3v1h-3zM121 204h5v1h-5zM127 204h8v1h-8zM136 204h6v1h-6zM144 204h4v1h-4zM149 204h2v1h-2zM152 204h4v1h-4zM157 204h2v1h-2zM160 204h17v1h-17zM178 204h7v1h-7zM186 204h2v1h-2zM189 204h2v1h-2zM192 204h6v1h-6zM2 205h8v1h-8zM11 205h1v1h-1zM13 205h3v1h-3zM17 205h16v1h-16zM34 205h2v1h-2zM37 205h2v1h-2zM40 205h5v1h-5zM46 205h4v1h-4zM51 205h4v1h-4zM56 205h3v1h-3zM60 205h1v1h-1zM62 205h2v1h-2zM65 205h2v1h-2zM68 205h5v1h-5zM74 205h2v1h-2zM77 205h1v1h-1zM79 205h1v1h-1zM81 205h1v1h-1zM83 205h3v1h-3zM87 205h3v1h-3zM91 205h2v1h-2zM94 205h5v1h-5zM106 205h6v1h-6zM113 205h5v1h-5zM119 205h1v1h-1zM121 205h8v1h-8zM130 205h2v1h-2zM133 205h4v1h-4zM138 205h4v1h-4zM144 205h17v1h-17zM162 205h2v1h-2zM165 205h3v1h-3zM169 205h7v1h-7zM177 205h12v1h-12zM190 205h3v1h-3zM194 205h2v1h-2zM197 205h1v1h-1zM2 206h1v1h-1zM4 206h1v1h-1zM6 206h1v1h-1zM8 206h1v1h-1zM10 206h3v1h-3zM14 206h1v1h-1zM16 206h2v1h-2zM19 206h11v1h-11zM31 206h7v1h-7zM39 206h2v1h-2zM42 206h1v1h-1zM44 206h3v1h-3zM48 206h4v1h-4zM53 206h4v1h-4zM58 206h5v1h-5zM64 206h11v1h-11zM76 206h12v1h-12zM89 206h3v1h-3zM93 206h4v1h-4zM105 206h3v1h-3zM109 206h1v1h-1zM111 206h3v1h-3zM115 206h1v1h-1zM117 206h8v1h-8zM126 206h1v1h-1zM128 206h6v1h-6zM135 206h6v1h-6zM144 206h3v1h-3zM148 206h2v1h-2zM151 206h2v1h-2zM154 206h2v1h-2zM157 206h9v1h-9zM167 206h7v1h-7zM175 206h9v1h-9zM185 206h2v1h-2zM188 206h3v1h-3zM192 206h3v1h-3zM196 206h2v1h-2zM2 207h4v1h-4zM7 207h4v1h-4zM12 207h10v1h-10zM23 207h8v1h-8zM32 207h2v1h-2zM35 207h1v1h-1zM37 207h13v1h-13zM51 207h4v1h-4zM56 207h5v1h-5zM62 207h4v1h-4zM67 207h2v1h-2zM70 207h4v1h-4zM75 207h4v1h-4zM80 207h2v1h-2zM83 207h1v1h-1zM85 207h1v1h-1zM87 207h4v1h-4zM92 207h2v1h-2zM95 207h2v1h-2zM106 207h7v1h-7zM114 207h4v1h-4zM119 207h1v1h-1zM121 207h9v1h-9zM131 207h1v1h-1zM133 207h5v1h-5zM139 207h3v1h-3zM144 207h15v1h-15zM160 207h3v1h-3zM164 207h25v1h-25zM190 207h3v1h-3zM194 207h4v1h-4zM2 208h1v1h-1zM4 208h11v1h-11zM16 208h22v1h-22zM39 208h2v1h-2zM42 208h2v1h-2zM45 208h1v1h-1zM47 208h2v1h-2zM50 208h2v1h-2zM53 208h4v1h-4zM58 208h1v1h-1zM60 208h3v1h-3zM64 208h4v1h-4zM69 208h6v1h-6zM76 208h1v1h-1zM78 208h3v1h-3zM82 208h14v1h-14zM105 208h4v1h-4zM110 208h1v1h-1zM112 208h3v1h-3zM116 208h3v1h-3zM120 208h4v1h-4zM125 208h2v1h-2zM128 208h6v1h-6zM135 208h2v1h-2zM138 208h3v1h-3zM144 208h3v1h-3zM148 208h1v1h-1zM150 208h2v1h-2zM153 208h1v1h-1zM155 208h11v1h-11zM167 208h5v1h-5zM173 208h8v1h-8zM182 208h1v1h-1zM184 208h1v1h-1zM186 208h1v1h-1zM188 208h3v1h-3zM192 208h3v1h-3zM196 208h1v1h-1zM2 209h3v1h-3zM6 209h1v1h-1zM8 209h24v1h-24zM33 209h2v1h-2zM36 209h6v1h-6zM43 209h4v1h-4zM48 209h7v1h-7zM56 209h5v1h-5zM62 209h4v1h-4zM67 209h4v1h-4zM72 209h7v1h-7zM80 209h5v1h-5zM86 209h2v1h-2zM89 209h3v1h-3zM93 209h2v1h-2zM105 209h8v1h-8zM114 209h2v1h-2zM117 209h1v1h-1zM119 209h10v1h-10zM130 209h2v1h-2zM133 209h8v1h-8zM144 209h12v1h-12zM157 209h1v1h-1zM159 209h2v1h-2zM162 209h2v1h-2zM165 209h24v1h-24zM190 209h3v1h-3zM194 209h4v1h-4zM2 210h1v1h-1zM4 210h33v1h-33zM38 210h2v1h-2zM41 210h3v1h-3zM45 210h4v1h-4zM50 210h1v1h-1zM52 210h1v1h-1zM54 210h3v1h-3zM58 210h5v1h-5zM64 210h4v1h-4zM69 210h6v1h-6zM76 210h1v1h-1zM78 210h3v1h-3zM82 210h1v1h-1zM84 210h10v1h-10zM105 210h3v1h-3zM109 210h2v1h-2zM112 210h11v1h-11zM124 210h2v1h-2zM127 210h7v1h-7zM135 210h1v1h-1zM137 210h4v1h-4zM143 210h7v1h-7zM151 210h3v1h-3zM155 210h12v1h-12zM168 210h10v1h-10zM179 210h1v1h-1zM181 210h1v1h-1zM183 210h1v1h-1zM185 210h1v1h-1zM187 210h4v1h-4zM192 210h3v1h-3zM196 210h2v1h-2zM2 211h5v1h-5zM8 211h1v1h-1zM10 211h1v1h-1zM12 211h19v1h-19zM32 211h1v1h-1zM34 211h1v1h-1zM36 211h11v1h-11zM48 211h10v1h-10zM59 211h2v1h-2zM62 211h2v1h-2zM65 211h1v1h-1zM67 211h4v1h-4zM72 211h7v1h-7zM80 211h6v1h-6zM87 211h1v1h-1zM89 211h4v1h-4zM105 211h4v1h-4zM110 211h4v1h-4zM115 211h1v1h-1zM117 211h1v1h-1zM119 211h8v1h-8zM128 211h2v1h-2zM131 211h1v1h-1zM133 211h13v1h-13zM147 211h1v1h-1zM149 211h3v1h-3zM153 211h7v1h-7zM161 211h2v1h-2zM164 211h12v1h-12zM177 211h2v1h-2zM180 211h8v1h-8zM189 211h1v1h-1zM191 211h3v1h-3zM195 211h3v1h-3z"/>
</g>
<text x="470" y="106" font-size="13" letter-spacing="2" fill="#18181B">SYSTEM.INFO</text>
<line x1="575" y1="102" x2="1061" y2="102" stroke="rgba(0,0,0,0.08)"/>
<text x="1125" y="106" text-anchor="end" font-size="12" fill="#059669" font-weight="700"><tspan>&#9679;</tspan> LIVE</text>
<g><rect x="470" y="122" width="130" height="20" rx="4" fill="#E4E4E7"/><text x="482" y="136" font-size="13" font-weight="700" fill="#09090B">@rdnk2004</text><line x1="615" y1="130" x2="1125" y2="130" stroke="rgba(0,0,0,0.08)"/></g>
<g><text x="470" y="162" font-size="14" textLength="655" lengthAdjust="spacingAndGlyphs" xml:space="preserve"><tspan fill="#52525B">Subject </tspan><tspan fill="rgba(0,0,0,0.18)">..................................................</tspan><tspan fill="#09090B" font-weight="600"> Nikhil Krishna R D</tspan></text></g>
<g><text x="470" y="185" font-size="14" textLength="655" lengthAdjust="spacingAndGlyphs" xml:space="preserve"><tspan fill="#52525B">Role </tspan><tspan fill="rgba(0,0,0,0.18)">.............................................</tspan><tspan fill="#09090B" font-weight="600"> AI &amp; Data Systems Engineer</tspan></text></g>
<g><text x="470" y="208" font-size="14" textLength="655" lengthAdjust="spacingAndGlyphs" xml:space="preserve"><tspan fill="#52525B">Origin </tspan><tspan fill="rgba(0,0,0,0.18)">...............................................</tspan><tspan fill="#09090B" font-weight="600"> Coimbatore, Tamil Nadu</tspan></text></g>
<g><text x="470" y="231" font-size="14" textLength="655" lengthAdjust="spacingAndGlyphs" xml:space="preserve"><tspan fill="#52525B">Education </tspan><tspan fill="rgba(0,0,0,0.18)">.........................................</tspan><tspan fill="#09090B" font-weight="600"> M.Sc. CS (Data Analytics)</tspan></text></g>
<g><text x="470" y="254" font-size="14" textLength="655" lengthAdjust="spacingAndGlyphs" xml:space="preserve"><tspan fill="#52525B">Specialization </tspan><tspan fill="rgba(0,0,0,0.18)">...............................</tspan><tspan fill="#09090B" font-weight="600"> Agentic AI, RAG &amp; Econometrics</tspan></text></g>
<g><text x="470" y="277" font-size="14" textLength="655" lengthAdjust="spacingAndGlyphs" xml:space="preserve"><tspan fill="#52525B">ToolChain </tspan><tspan fill="rgba(0,0,0,0.18)">..................................</tspan><tspan fill="#09090B" font-weight="600"> Python, FastAPI, PyTorch, Docker</tspan></text></g>
<g><text x="470" y="300" font-size="14" textLength="655" lengthAdjust="spacingAndGlyphs" xml:space="preserve"><tspan fill="#52525B">Core.Lang </tspan><tspan fill="rgba(0,0,0,0.18)">.....................................</tspan><tspan fill="#09090B" font-weight="600"> Python, SQL, TypeScript, Bash</tspan></text></g>
<g><text x="470" y="323" font-size="14" textLength="655" lengthAdjust="spacingAndGlyphs" xml:space="preserve"><tspan fill="#52525B">Core.ML </tspan><tspan fill="rgba(0,0,0,0.18)">....................................</tspan><tspan fill="#09090B" font-weight="600"> PyTorch, scikit-learn, LangChain</tspan></text></g>
<g><text x="470" y="346" font-size="14" textLength="655" lengthAdjust="spacingAndGlyphs" xml:space="preserve"><tspan fill="#52525B">Core.Data </tspan><tspan fill="rgba(0,0,0,0.18)">......................................</tspan><tspan fill="#09090B" font-weight="600"> PostgreSQL, ChromaDB, Pandas</tspan></text></g>
<g><text x="470" y="369" font-size="14" textLength="655" lengthAdjust="spacingAndGlyphs" xml:space="preserve"><tspan fill="#52525B">Core.Infra </tspan><tspan fill="rgba(0,0,0,0.18)">...................................</tspan><tspan fill="#09090B" font-weight="600"> Docker, GitHub Actions, MLflow</tspan></text></g>
<g><text x="470" y="392" font-size="14" textLength="655" lengthAdjust="spacingAndGlyphs" xml:space="preserve"><tspan fill="#71717A">- Contact </tspan><tspan fill="rgba(0,0,0,0.18)">---------------------------------------------------------------------</tspan></text></g>
<g><text x="470" y="415" font-size="14" textLength="655" lengthAdjust="spacingAndGlyphs" xml:space="preserve"><tspan fill="#52525B">Grid.Mail </tspan><tspan fill="rgba(0,0,0,0.18)">.....................................</tspan><tspan fill="#09090B" font-weight="600"> rdnikhilkrishna2004@gmail.com</tspan></text></g>
<g><text x="470" y="438" font-size="14" textLength="655" lengthAdjust="spacingAndGlyphs" xml:space="preserve"><tspan fill="#52525B">Grid.Portfolio </tspan><tspan fill="rgba(0,0,0,0.18)">.....................................</tspan><tspan fill="#09090B" font-weight="600"> rdnkportfolio.vercel.app</tspan></text></g>
<g><text x="470" y="461" font-size="14" textLength="655" lengthAdjust="spacingAndGlyphs" xml:space="preserve"><tspan fill="#52525B">Grid.LinkedIn </tspan><tspan fill="rgba(0,0,0,0.18)">..................................</tspan><tspan fill="#09090B" font-weight="600"> nikhil-krishna-r-d-773b84259</tspan></text></g>
<g><text x="470" y="484" font-size="14" textLength="655" lengthAdjust="spacingAndGlyphs" xml:space="preserve"><tspan fill="#52525B">Grid.GitHub </tspan><tspan fill="rgba(0,0,0,0.18)">........................................................</tspan><tspan fill="#09090B" font-weight="600"> rdnk2004</tspan></text></g>
<g><text x="470" y="572" font-size="14" fill="#71717A">&#9656; Featured projects and engineering details below &#8595; </text></g>
</g>
<rect x="2" y="2" width="1176" height="606" rx="16" fill="none" stroke="#E4E4E7" stroke-width="1.2"/>
</svg>