<svg xmlns="http://www.w3.org/2000/svg" xmlns:xlink="http://www.w3.org/1999/xlink" width="100%" height="auto" viewBox="0 0 580 260" font-family="-apple-system,BlinkMacSystemFont,'Segoe UI','Inter',Roboto,Helvetica,Arial,sans-serif" role="img" aria-label="CPI-MPC Forecaster"><defs><linearGradient id="card_grad_2" x1="0" y1="0" x2="1" y2="1"><stop offset="0%" stop-color="#FFFFFF"/><stop offset="100%" stop-color="#FAF6F0"/></linearGradient></defs><a href="https://github.com/rdnk2004/cpi-mpc" xlink:href="https://github.com/rdnk2004/cpi-mpc" target="_blank" style="text-decoration:none; cursor:pointer;"><g opacity="0"><animate attributeName="opacity" from="0" to="1" dur="0.4s" begin="0.28s" fill="freeze"/><rect width="580" height="260" rx="16" fill="url(#card_grad_2)" stroke="rgba(166,123,61,0.28)" stroke-width="1.2"><animate attributeName="stroke" values="rgba(139,90,43,0.18);rgba(166,123,61,0.65);rgba(139,90,43,0.18)" dur="4s" begin="1.48s" repeatCount="indefinite"/></rect><rect x="24" y="20" width="48" height="48" rx="12" fill="rgba(166,123,61,0.09)" stroke="rgba(166,123,61,0.30)" stroke-width="1.0"/><path d="M 39.5 52.5 L 56.5 52.5 M 39.5 36.0 L 39.5 52.5" fill="none" stroke="#8B5A2B" stroke-width="1.8" stroke-linecap="round"/><path d="M 41.0 48.0 L 45.5 43.5 L 50.0 46.0 L 56.0 38.5" fill="none" stroke="#8B5A2B" stroke-width="2.0" stroke-linecap="round" stroke-linejoin="round"/><circle cx="45.5" cy="43.5" r="1.6" fill="#8B5A2B"/><circle cx="50.0" cy="46.0" r="1.6" fill="#8B5A2B"/><circle cx="56.0" cy="38.5" r="1.8" fill="#8B5A2B"/><text x="84" y="41" font-size="20" font-weight="700" fill="#1C140C">CPI-MPC Forecaster</text><text x="84" y="58" font-size="11" font-weight="600" letter-spacing="0.8" fill="#A67B3D">MACRO ECONOMETRIC ML</text><rect x="448" y="22" width="108" height="28" rx="14" fill="rgba(22,163,74,0.10)" stroke="rgba(22,163,74,0.28)" stroke-width="0.9"/><circle cx="462" cy="36" r="4" fill="#16A34A"><animate attributeName="opacity" values="1;0.35;1" dur="1.8s" repeatCount="indefinite"/></circle><text x="473" y="40" font-size="11" font-weight="700" fill="#16A34A">MAINTAINED</text><text x="24" y="94" font-size="13.5" font-weight="450" fill="#5A4A3B">13-year macroeconomic inflation ML pipeline analyzing</text><text x="24" y="116" font-size="13.5" font-weight="450" fill="#5A4A3B">RBI rate decisions with predictive explainability</text><rect x="24" y="142" width="67" height="26" rx="7" fill="rgba(166,123,61,0.09)" stroke="rgba(166,123,61,0.26)" stroke-width="0.9"/><text x="57" y="159" text-anchor="middle" font-size="11.5" font-weight="600" fill="#3D2B1C">Python</text><rect x="98.8" y="142" width="75" height="26" rx="7" fill="rgba(166,123,61,0.09)" stroke="rgba(166,123,61,0.26)" stroke-width="0.9"/><text x="136" y="159" text-anchor="middle" font-size="11.5" font-weight="600" fill="#3D2B1C">XGBoost</text><rect x="181.39999999999998" y="142" width="75" height="26" rx="7" fill="rgba(166,123,61,0.09)" stroke="rgba(166,123,61,0.26)" stroke-width="0.9"/><text x="219" y="159" text-anchor="middle" font-size="11.5" font-weight="600" fill="#3D2B1C">Prophet</text><rect x="264.0" y="142" width="51" height="26" rx="7" fill="rgba(166,123,61,0.09)" stroke="rgba(166,123,61,0.26)" stroke-width="0.9"/><text x="290" y="159" text-anchor="middle" font-size="11.5" font-weight="600" fill="#3D2B1C">SHAP</text><rect x="323.2" y="142" width="75" height="26" rx="7" fill="rgba(166,123,61,0.09)" stroke="rgba(166,123,61,0.26)" stroke-width="0.9"/><text x="360" y="159" text-anchor="middle" font-size="11.5" font-weight="600" fill="#3D2B1C">FastAPI</text><line x1="24" y1="184" x2="556" y2="184" stroke="rgba(0,0,0,0.08)" stroke-width="1"/><rect x="24" y="200" width="360" height="7" rx="3.5" fill="rgba(0,0,0,0.06)"/><rect x="24.0" y="200" width="360.0" height="7" rx="3.5" fill="#A67B3D"/><circle cx="28.0" cy="221.0" r="3.5" fill="#A67B3D"/><text x="36.0" y="225.0" font-size="12" font-weight="500" fill="#5A4A3B">Python <tspan font-weight="700" fill="#1C140C">100%</tspan></text><rect x="412" y="200" width="144" height="36" rx="8" fill="rgba(166,123,61,0.09)" stroke="rgba(166,123,61,0.34)" stroke-width="1.0"/><text x="484" y="222.5" text-anchor="middle" font-size="12.5" font-weight="700" fill="#8B5A2B">Explore Repo ↗</text></g></a></svg>