<svg xmlns="http://www.w3.org/2000/svg" xmlns:xlink="http://www.w3.org/1999/xlink" width="100%" height="auto" viewBox="0 0 576 236" font-family="-apple-system,BlinkMacSystemFont,'Segoe UI','Inter',Roboto,Helvetica,Arial,sans-serif" role="img" aria-label="NyayaSetu"><rect width="576" height="236" rx="14" fill="#F7F3EC"/><defs><linearGradient id="card_bg_grad_0" x1="0" y1="0" x2="1" y2="1"><stop offset="0%" stop-color="#FFFFFF"/><stop offset="100%" stop-color="#FAF6F0"/></linearGradient></defs><a href="https://github.com/rdnk2004/NyayaSetu-Multi-Agent" xlink:href="https://github.com/rdnk2004/NyayaSetu-Multi-Agent" target="_blank" style="text-decoration:none; cursor:pointer;"><g opacity="0"><animate attributeName="opacity" from="0" to="1" dur="0.4s" begin="0.15s" fill="freeze"/><rect width="576" height="236" rx="14" fill="url(#card_bg_grad_0)" stroke="rgba(166,123,61,0.25)" stroke-width="1.2"><animate attributeName="stroke" values="rgba(139,90,43,0.15);rgba(166,123,61,0.60);rgba(139,90,43,0.15)" dur="4s" begin="0.15s" repeatCount="indefinite"/></rect><rect x="20" y="18" width="38" height="38" rx="9" fill="rgba(166,123,61,0.08)" stroke="rgba(166,123,61,0.28)" stroke-width="1.0"/><path d="M 39.0 30.0 L 39.0 44.0 M 35.5 44.0 L 42.5 44.0 M 32.5 33.0 L 45.5 33.0 M 33.5 33.0 L 31.0 38.0 M 36.5 33.0 L 39.0 38.0 M 31.0 38.0 Q 35.0 40.5 39.0 38.0 M 41.5 33.0 L 39.0 38.0 M 44.5 33.0 L 47.0 38.0 M 39.0 38.0 Q 43.0 40.5 47.0 38.0" fill="none" stroke="#8B5A2B" stroke-width="1.6" stroke-linecap="round" stroke-linejoin="round"/><circle cx="39.0" cy="30.0" r="1.2" fill="#8B5A2B"/><text x="68" y="34" font-size="17" font-weight="700" fill="#1C140C">NyayaSetu</text><text x="68" y="49" font-size="10" font-weight="600" letter-spacing="0.8" fill="#A67B3D">AGENTIC AI &amp; LEGAL REASONING</text><rect x="458" y="20" width="98" height="24" rx="12" fill="rgba(61,107,60,0.10)" stroke="rgba(61,107,60,0.28)" stroke-width="0.9"/><circle cx="470" cy="32" r="3.5" fill="#16A34A"><animate attributeName="opacity" values="1;0.35;1" dur="1.8s" repeatCount="indefinite"/></circle><text x="480" y="35.5" font-size="10.5" font-weight="600" fill="#16A34A">MAINTAINED</text><text x="20" y="78" font-size="12.5" font-weight="450" fill="#5E4F41">Multi-agent legal reasoning engine — verified</text><text x="20" y="96" font-size="12.5" font-weight="450" fill="#5E4F41">statutory grounding &amp; zero-hallucination case…</text><rect x="20" y="118" width="61" height="22" rx="6" fill="rgba(166,123,61,0.08)" stroke="rgba(166,123,61,0.24)" stroke-width="0.9"/><text x="51" y="132.5" text-anchor="middle" font-size="10.5" font-weight="600" fill="#3D2B1C">Python</text><rect x="88.2" y="118" width="97" height="22" rx="6" fill="rgba(166,123,61,0.08)" stroke="rgba(166,123,61,0.24)" stroke-width="0.9"/><text x="137" y="132.5" text-anchor="middle" font-size="10.5" font-weight="600" fill="#3D2B1C">Multi-Agent</text><rect x="192.4" y="118" width="83" height="22" rx="6" fill="rgba(166,123,61,0.08)" stroke="rgba(166,123,61,0.24)" stroke-width="0.9"/><text x="234" y="132.5" text-anchor="middle" font-size="10.5" font-weight="600" fill="#3D2B1C">LangChain</text><rect x="282.2" y="118" width="76" height="22" rx="6" fill="rgba(166,123,61,0.08)" stroke="rgba(166,123,61,0.24)" stroke-width="0.9"/><text x="320" y="132.5" text-anchor="middle" font-size="10.5" font-weight="600" fill="#3D2B1C">ChromaDB</text><rect x="364.79999999999995" y="118" width="76" height="22" rx="6" fill="rgba(166,123,61,0.08)" stroke="rgba(166,123,61,0.24)" stroke-width="0.9"/><text x="403" y="132.5" text-anchor="middle" font-size="10.5" font-weight="600" fill="#3D2B1C">Pydantic</text><line x1="20" y1="154" x2="556" y2="154" stroke="rgba(0,0,0,0.07)" stroke-width="1"/><rect x="20" y="168" width="340" height="6" rx="3.0" fill="rgba(0,0,0,0.06)"/><rect x="20.0" y="168" width="340.0" height="6" rx="3.0" fill="#A67B3D"/><circle cx="23.5" cy="186.5" r="3" fill="#A67B3D"/><text x="31.0" y="190.0" font-size="11" font-weight="500" fill="#5E4F41">Python <tspan font-weight="700" fill="#1C140C">100%</tspan></text><rect x="414" y="172" width="142" height="32" rx="8" fill="rgba(166,123,61,0.08)" stroke="rgba(166,123,61,0.32)" stroke-width="1.0"/><text x="485" y="192" text-anchor="middle" font-size="11.5" font-weight="700" fill="#8B5A2B">Explore Repo ↗</text></g></a></svg>