<svg xmlns="http://www.w3.org/2000/svg" xmlns:xlink="http://www.w3.org/1999/xlink" width="100%" height="auto" viewBox="0 0 580 260" font-family="-apple-system,BlinkMacSystemFont,'Segoe UI','Inter',Roboto,Helvetica,Arial,sans-serif" role="img" aria-label="NyayaSetu"><defs><linearGradient id="card_grad_dark_0" x1="0" y1="0" x2="1" y2="1"><stop offset="0%" stop-color="#130E09"/><stop offset="100%" stop-color="#19120C"/></linearGradient><linearGradient id="card_trim_dark_0" x1="0" y1="0" x2="1" y2="0"><stop offset="0%" stop-color="#D4A353" stop-opacity="0.85"/><stop offset="60%" stop-color="#C0713A" stop-opacity="0.25"/><stop offset="100%" stop-color="#C0713A" stop-opacity="0"/></linearGradient></defs><a href="https://github.com/rdnk2004/NyayaSetu-Multi-Agent" xlink:href="https://github.com/rdnk2004/NyayaSetu-Multi-Agent" target="_blank" style="text-decoration:none; cursor:pointer;"><g opacity="0"><animate attributeName="opacity" from="0" to="1" dur="0.4s" begin="0.12s" fill="freeze"/><rect width="580" height="260" rx="16" fill="url(#card_grad_dark_0)" stroke="rgba(212,163,83,0.24)" stroke-width="1.2"><animate attributeName="stroke" values="rgba(192,113,58,0.20);rgba(212,163,83,0.70);rgba(192,113,58,0.20)" dur="4s" begin="0.12s" repeatCount="indefinite"/></rect><path d="M 28 1.2 L 200 1.2" stroke="url(#card_trim_dark_0)" stroke-width="2.2" stroke-linecap="round"/><rect x="24" y="20" width="48" height="48" rx="12" fill="rgba(212,163,83,0.12)" stroke="rgba(212,163,83,0.35)" stroke-width="1.0"/><path d="M 48.0 35.5 L 48.0 52.5 M 44.0 52.5 L 52.0 52.5 M 40.0 39.0 L 56.0 39.0 M 41.5 39.0 L 38.5 45.0 M 45.0 39.0 L 48.0 45.0 M 38.5 45.0 Q 43.2 48.0 48.0 45.0 M 51.0 39.0 L 48.0 45.0 M 54.5 39.0 L 57.5 45.0 M 48.0 45.0 Q 52.8 48.0 57.5 45.0" fill="none" stroke="#D4A353" stroke-width="1.8" stroke-linecap="round" stroke-linejoin="round"/><circle cx="48.0" cy="35.5" r="1.5" fill="#D4A353"/><text x="84" y="41" font-size="20" font-weight="700" fill="#FAF5EE">NyayaSetu</text><text x="84" y="58" font-size="11" font-weight="600" letter-spacing="0.8" fill="#D4A353">AGENTIC AI &amp; LEGAL REASONING</text><rect x="424" y="23" width="132" height="26" rx="13" fill="rgba(74,222,128,0.12)" stroke="rgba(74,222,128,0.30)" stroke-width="0.9"/><circle cx="437" cy="36" r="3.5" fill="#4ADE80"><animate attributeName="opacity" values="1;0.35;1" dur="1.8s" repeatCount="indefinite"/></circle><text x="447" y="39.5" font-size="10.5" font-weight="700" letter-spacing="0.5" fill="#4ADE80">UPDATED AUG 2026</text><text x="24" y="94" font-size="13.5" font-weight="450" fill="#BCAAA0">Multi-agent legal reasoning engine — verified</text><text x="24" y="116" font-size="13.5" font-weight="450" fill="#BCAAA0">statutory grounding &amp; zero-hallucination case law…</text><rect x="24" y="142" width="67" height="26" rx="7" fill="rgba(212,163,83,0.09)" stroke="rgba(212,163,83,0.26)" stroke-width="0.9"/><text x="57" y="159" text-anchor="middle" font-size="11.5" font-weight="600" fill="#E8D8C5">Python</text><rect x="98.8" y="142" width="106" height="26" rx="7" fill="rgba(212,163,83,0.09)" stroke="rgba(212,163,83,0.26)" stroke-width="0.9"/><text x="152" y="159" text-anchor="middle" font-size="11.5" font-weight="600" fill="#E8D8C5">Multi-Agent</text><rect x="212.6" y="142" width="90" height="26" rx="7" fill="rgba(212,163,83,0.09)" stroke="rgba(212,163,83,0.26)" stroke-width="0.9"/><text x="258" y="159" text-anchor="middle" font-size="11.5" font-weight="600" fill="#E8D8C5">LangChain</text><rect x="310.8" y="142" width="82" height="26" rx="7" fill="rgba(212,163,83,0.09)" stroke="rgba(212,163,83,0.26)" stroke-width="0.9"/><text x="352" y="159" text-anchor="middle" font-size="11.5" font-weight="600" fill="#E8D8C5">ChromaDB</text><rect x="401.20000000000005" y="142" width="82" height="26" rx="7" fill="rgba(212,163,83,0.09)" stroke="rgba(212,163,83,0.26)" stroke-width="0.9"/><text x="442" y="159" text-anchor="middle" font-size="11.5" font-weight="600" fill="#E8D8C5">Pydantic</text><line x1="24" y1="184" x2="556" y2="184" stroke="rgba(255,255,255,0.08)" stroke-width="1"/><rect x="24" y="200" width="360" height="7" rx="3.5" fill="rgba(255,255,255,0.08)"/><rect x="24.0" y="200" width="360.0" height="7" rx="3.5" fill="#D4A353"/><circle cx="28.0" cy="221.0" r="3.5" fill="#D4A353"/><text x="36.0" y="225.0" font-size="12" font-weight="500" fill="#BCAAA0">Python <tspan font-weight="700" fill="#FAF5EE">100%</tspan></text><rect x="412" y="200" width="144" height="36" rx="8" fill="rgba(212,163,83,0.12)" stroke="rgba(212,163,83,0.38)" stroke-width="1.0"/><text x="484" y="222.5" text-anchor="middle" font-size="12.5" font-weight="700" fill="#D4A353">Explore Repo ↗</text></g></a></svg>