<svg xmlns="http://www.w3.org/2000/svg" xmlns:xlink="http://www.w3.org/1999/xlink" width="100%" height="auto" viewBox="0 0 576 256" font-family="ui-monospace,SFMono-Regular,Menlo,Consolas,'Liberation Mono',monospace" role="img" aria-label="NyayaSetu"><rect width="576" height="256" rx="14" fill="#0D0A06"/><a href="https://github.com/rdnk2004/NyayaSetu-Multi-Agent" xlink:href="https://github.com/rdnk2004/NyayaSetu-Multi-Agent" target="_blank" style="text-decoration:none; cursor:pointer;"><g opacity="0"><animate attributeName="opacity" from="0" to="1" dur="0.5s" begin="0.25s" fill="freeze"/><rect width="576" height="256" rx="14" fill="#140F09" stroke="rgba(212,163,83,0.40)"><animate attributeName="stroke" values="rgba(192,113,58,0.28);rgba(212,163,83,0.88);rgba(192,113,58,0.28)" dur="4.5s" begin="0.25s" repeatCount="indefinite"/></rect><rect width="576" height="36" rx="14" fill="#110B06"/><rect y="22" width="576" height="14" fill="#110B06"/><line x1="0" y1="36" x2="576" y2="36" stroke="rgba(255,255,255,0.08)"/><text x="18" y="23" font-size="12" font-weight="600" fill="#D0BFAD"><tspan fill="#D4A353">&#8226;</tspan> rdnk2004/NyayaSetu-Multi-Agent</text><rect x="308.0" y="8" width="242.0" height="20" rx="10" fill="rgba(192,113,58,0.32)" stroke="rgba(192,113,58,0.80)"/><text x="429" y="21.5" text-anchor="middle" font-size="10" font-weight="700" fill="#D4A353">Agentic AI &amp; Legal Reasoning</text><circle cx="562" cy="18" r="4.5" fill="#5B8C5A"><animate attributeName="opacity" values="1;0.25;1" dur="1.8s" repeatCount="indefinite"/></circle><g><animateTransform attributeName="transform" type="translate" values="0 0; 0 -3; 0 0" dur="5s" begin="0.25s" repeatCount="indefinite" calcMode="spline" keyTimes="0;0.5;1" keySplines="0.4 0 0.6 1;0.4 0 0.6 1"/><rect x="18" y="52" width="52" height="52" rx="12" fill="#C0713A" opacity="0.95"/><path d="M 44.0 61.75 L 44.0 94.25 M 36.416666666666664 94.25 L 51.58333333333333 94.25 M 27.75 68.25 L 60.25 68.25 M 29.916666666666664 68.25 L 25.583333333333332 79.08333333333333 M 34.25 68.25 L 38.58333333333333 79.08333333333333 M 23.416666666666664 79.08333333333333 Q 32.08333333333333 85.58333333333333 40.75 79.08333333333333 Z M 53.75 68.25 L 49.416666666666664 79.08333333333333 M 58.08333333333333 68.25 L 62.416666666666664 79.08333333333333 M 47.25 79.08333333333333 Q 55.916666666666664 85.58333333333333 64.58333333333333 79.08333333333333 Z" fill="none" stroke="#0D0A06" stroke-width="3.683333333333333" stroke-linecap="round" stroke-linejoin="round"/><circle cx="44.0" cy="61.75" r="3.25" fill="#0D0A06"/></g><text x="80" y="74" font-size="20" font-weight="700" fill="#F5E6D3">NyayaSetu<tspan fill="#D4A353">_<animate attributeName="opacity" values="1;0;1" dur="1.2s" begin="0.65s" repeatCount="indefinite"/></tspan></text><text x="80" y="98" font-size="13.5" font-weight="500" fill="#D0BFAD">Multi-agent legal reasoning</text><text x="80" y="118" font-size="13.5" font-weight="500" fill="#D0BFAD">engine — verified statutory…</text><rect x="80" y="146" width="61" height="23" rx="11.5" fill="rgba(58,35,18,0.95)" stroke="rgba(212,163,83,0.60)"/><text x="110" y="161" text-anchor="middle" font-size="11" font-weight="700" fill="#D4A353">Python</text><rect x="149.0" y="146" width="98" height="23" rx="11.5" fill="rgba(58,35,18,0.95)" stroke="rgba(212,163,83,0.60)"/><text x="198" y="161" text-anchor="middle" font-size="11" font-weight="700" fill="#D4A353">Multi-Agent</text><rect x="255.5" y="146" width="84" height="23" rx="11.5" fill="rgba(58,35,18,0.95)" stroke="rgba(212,163,83,0.60)"/><text x="297" y="161" text-anchor="middle" font-size="11" font-weight="700" fill="#D4A353">LangChain</text><rect x="80" y="177" width="76" height="23" rx="11.5" fill="rgba(58,35,18,0.95)" stroke="rgba(212,163,83,0.60)"/><text x="118" y="192" text-anchor="middle" font-size="11" font-weight="700" fill="#D4A353">ChromaDB</text><rect x="164.0" y="177" width="76" height="23" rx="11.5" fill="rgba(58,35,18,0.95)" stroke="rgba(212,163,83,0.60)"/><text x="202" y="192" text-anchor="middle" font-size="11" font-weight="700" fill="#D4A353">Pydantic</text><line x1="16" y1="222" x2="560" y2="222" stroke="rgba(255,255,255,0.08)" stroke-width="1"/><text x="80" y="240" font-size="11.5" font-weight="600" fill="#D0BFAD"><tspan fill="#D4A353">&#9656;</tspan> Applied Production Stack<tspan fill="#C0713A" dx="16" font-weight="700">&#8599; View Repository</tspan></text><circle cx="524" cy="102" r="28" fill="none" stroke="rgba(156,139,120,0.22)" stroke-width="9.5"/><circle cx="524" cy="102" r="28" fill="none" stroke="#D4A353" stroke-width="9.5" stroke-dasharray="175.93 0.00" stroke-dashoffset="-0.00" transform="rotate(-90 524 102)" opacity="0"><animate attributeName="opacity" from="0" to="1" dur="0.01s" begin="0.55s" fill="freeze"/><animate attributeName="stroke-dasharray" from="0 175.93" to="175.93 0.00" dur="0.6s" begin="0.55s" fill="freeze" calcMode="spline" keyTimes="0;1" keySplines="0.3 0 0.2 1"/></circle><text x="524" y="107" text-anchor="middle" font-size="13" font-weight="800" fill="#F5E6D3">100%</text><circle cx="396" cy="102" r="4" fill="#D4A353"/><text x="407" y="106.5" font-size="11.5" font-weight="600" fill="#D0BFAD">Python <tspan fill="#F5E6D3" font-weight="700">100%</tspan></text></g></a></svg>