<svg xmlns="http://www.w3.org/2000/svg" xmlns:xlink="http://www.w3.org/1999/xlink" width="100%" height="auto" viewBox="0 0 580 260" font-family="-apple-system,BlinkMacSystemFont,'Segoe UI','Inter',Roboto,Helvetica,Arial,sans-serif" role="img" aria-label="Screenwriting Suite"><defs><linearGradient id="card_grad_light_1" x1="0" y1="0" x2="1" y2="1"><stop offset="0%" stop-color="#FFFFFF"/><stop offset="100%" stop-color="#FAF6F0"/></linearGradient><linearGradient id="card_trim_light_1" x1="0" y1="0" x2="1" y2="0"><stop offset="0%" stop-color="#A67B3D" stop-opacity="0.85"/><stop offset="60%" stop-color="#8B5A2B" stop-opacity="0.25"/><stop offset="100%" stop-color="#8B5A2B" stop-opacity="0"/></linearGradient></defs><a href="https://github.com/rdnk2004/screenwriting-software" xlink:href="https://github.com/rdnk2004/screenwriting-software" target="_blank" style="text-decoration:none; cursor:pointer;"><g opacity="0"><animate attributeName="opacity" from="0" to="1" dur="0.4s" begin="0.20s" fill="freeze"/><rect width="580" height="260" rx="16" fill="url(#card_grad_light_1)" stroke="rgba(166,123,61,0.28)" stroke-width="1.2"><animate attributeName="stroke" values="rgba(139,90,43,0.18);rgba(166,123,61,0.65);rgba(139,90,43,0.18)" dur="4s" begin="0.80s" repeatCount="indefinite"/></rect><path d="M 28 1.2 L 200 1.2" stroke="url(#card_trim_light_1)" stroke-width="2.2" stroke-linecap="round"/><rect x="24" y="20" width="48" height="48" rx="12" fill="rgba(166,123,61,0.09)" stroke="rgba(166,123,61,0.30)" stroke-width="1.0"/><rect x="39.0" y="41.5" width="18.0" height="11.5" rx="1.8" fill="none" stroke="#8B5A2B" stroke-width="1.8"/><path d="M 39.0 36.0 L 57.0 36.0 L 57.0 41.0 L 39.0 41.0 Z" fill="none" stroke="#8B5A2B" stroke-width="1.8"/><line x1="43.5" y1="36.0" x2="41.5" y2="41.0" stroke="#8B5A2B" stroke-width="1.6"/><line x1="49.0" y1="36.0" x2="47.0" y2="41.0" stroke="#8B5A2B" stroke-width="1.6"/><line x1="54.5" y1="36.0" x2="52.5" y2="41.0" stroke="#8B5A2B" stroke-width="1.6"/><line x1="42.5" y1="45.5" x2="53.5" y2="45.5" stroke="#8B5A2B" stroke-width="1.5" stroke-linecap="round"/><line x1="42.5" y1="49.0" x2="49.0" y2="49.0" stroke="#8B5A2B" stroke-width="1.5" stroke-linecap="round"/><text x="84" y="41" font-size="20" font-weight="700" fill="#1C140C">Screenwriting Suite</text><text x="84" y="58" font-size="11" font-weight="600" letter-spacing="0.8" fill="#A67B3D">CREATIVE SYSTEMS &amp; STORYTELLING</text><rect x="424" y="23" width="132" height="26" rx="13" fill="rgba(22,163,74,0.10)" stroke="rgba(22,163,74,0.28)" stroke-width="0.9"/><circle cx="437" cy="36" r="3.5" fill="#16A34A"><animate attributeName="opacity" values="1;0.35;1" dur="1.8s" repeatCount="indefinite"/></circle><text x="447" y="39.5" font-size="10.5" font-weight="700" letter-spacing="0.5" fill="#16A34A">UPDATED AUG 2026</text><text x="24" y="94" font-size="13.5" font-weight="450" fill="#5A4A3B">Screenwriter&#x27;s studio — Fountain script editor,</text><text x="24" y="116" font-size="13.5" font-weight="450" fill="#5A4A3B">character sketches, story beats &amp; relationship webs</text><rect x="24" y="142" width="59" height="26" rx="7" fill="rgba(166,123,61,0.09)" stroke="rgba(166,123,61,0.26)" stroke-width="0.9"/><text x="54" y="159" text-anchor="middle" font-size="11.5" font-weight="600" fill="#3D2B1C">React</text><rect x="91.0" y="142" width="98" height="26" rx="7" fill="rgba(166,123,61,0.09)" stroke="rgba(166,123,61,0.26)" stroke-width="0.9"/><text x="140" y="159" text-anchor="middle" font-size="11.5" font-weight="600" fill="#3D2B1C">JavaScript</text><rect x="197.0" y="142" width="67" height="26" rx="7" fill="rgba(166,123,61,0.09)" stroke="rgba(166,123,61,0.26)" stroke-width="0.9"/><text x="230" y="159" text-anchor="middle" font-size="11.5" font-weight="600" fill="#3D2B1C">Django</text><rect x="271.8" y="142" width="82" height="26" rx="7" fill="rgba(166,123,61,0.09)" stroke="rgba(166,123,61,0.26)" stroke-width="0.9"/><text x="313" y="159" text-anchor="middle" font-size="11.5" font-weight="600" fill="#3D2B1C">Fountain</text><rect x="362.20000000000005" y="142" width="67" height="26" rx="7" fill="rgba(166,123,61,0.09)" stroke="rgba(166,123,61,0.26)" stroke-width="0.9"/><text x="396" y="159" text-anchor="middle" font-size="11.5" font-weight="600" fill="#3D2B1C">PDFKit</text><line x1="24" y1="184" x2="556" y2="184" stroke="rgba(0,0,0,0.08)" stroke-width="1"/><rect x="24" y="200" width="360" height="7" rx="3.5" fill="rgba(0,0,0,0.06)"/><path d="M 27.5 200 L 246.9 200 L 246.9 207 L 27.5 207 A 3.5 3.5 0 0 1 27.5 200" fill="#A67B3D"/><rect x="246.9" y="200" width="121.7" height="7" fill="#8B5A2B"/><path d="M 368.7 200 L 380.5 200 A 3.5 3.5 0 0 1 380.5 207 L 368.7 207 Z" fill="#3D6B3C"/><circle cx="28.0" cy="221.0" r="3.5" fill="#A67B3D"/><text x="36.0" y="225.0" font-size="12" font-weight="500" fill="#5A4A3B">Python <tspan font-weight="700" fill="#1C140C">62%</tspan></text><circle cx="127.0" cy="221.0" r="3.5" fill="#8B5A2B"/><text x="135.0" y="225.0" font-size="12" font-weight="500" fill="#5A4A3B">JS <tspan font-weight="700" fill="#1C140C">34%</tspan></text><circle cx="196.0" cy="221.0" r="3.5" fill="#3D6B3C"/><text x="204.0" y="225.0" font-size="12" font-weight="500" fill="#5A4A3B">CSS <tspan font-weight="700" fill="#1C140C">4%</tspan></text><rect x="412" y="200" width="144" height="36" rx="8" fill="rgba(166,123,61,0.09)" stroke="rgba(166,123,61,0.34)" stroke-width="1.0"/><text x="484" y="222.5" text-anchor="middle" font-size="12.5" font-weight="700" fill="#8B5A2B">Explore Repo ↗</text></g></a></svg>