<svg xmlns="http://www.w3.org/2000/svg" xmlns:xlink="http://www.w3.org/1999/xlink" width="100%" height="auto" viewBox="0 0 580 260" font-family="-apple-system,BlinkMacSystemFont,'Segoe UI','Inter',Roboto,Helvetica,Arial,sans-serif" role="img" aria-label="NPA-RBI Risk Engine"><defs><linearGradient id="card_grad_dark_3" x1="0" y1="0" x2="1" y2="1"><stop offset="0%" stop-color="#121215"/><stop offset="100%" stop-color="#0E0E11"/></linearGradient><linearGradient id="card_trim_dark_3" x1="0" y1="0" x2="1" y2="0"><stop offset="0%" stop-color="#E4E4E7" stop-opacity="0.85"/><stop offset="60%" stop-color="#71717A" stop-opacity="0.25"/><stop offset="100%" stop-color="#71717A" stop-opacity="0"/></linearGradient><linearGradient id="spark_grad_dark_3" x1="0" y1="0" x2="0" y2="1"><stop offset="0%" stop-color="#10B981" stop-opacity="0.28"/><stop offset="100%" stop-color="#10B981" stop-opacity="0.0"/></linearGradient></defs><a href="https://github.com/rdnk2004/NPA-RBI" xlink:href="https://github.com/rdnk2004/NPA-RBI" target="_blank" style="text-decoration:none; cursor:pointer;"><g opacity="0"><animate attributeName="opacity" from="0" to="1" dur="0.4s" begin="0.36s" fill="freeze"/><rect width="580" height="260" rx="16" fill="url(#card_grad_dark_3)" stroke="rgba(255,255,255,0.12)" stroke-width="1.2"><animate attributeName="stroke" values="rgba(255,255,255,0.06);rgba(228,228,231,0.55);rgba(255,255,255,0.06)" dur="4s" begin="2.16s" repeatCount="indefinite"/></rect><path d="M 28 1.2 L 200 1.2" stroke="url(#card_trim_dark_3)" stroke-width="2.2" stroke-linecap="round"/><rect x="24" y="20" width="48" height="48" rx="12" fill="rgba(255,255,255,0.06)" stroke="rgba(255,255,255,0.16)" stroke-width="1.0"/><polygon points="48.0,35.5 39.0,40.5 57.0,40.5" fill="none" stroke="#E4E4E7" stroke-width="1.8" stroke-linejoin="round"/><line x1="39.0" y1="40.5" x2="57.0" y2="40.5" stroke="#E4E4E7" stroke-width="1.8"/><line x1="41.5" y1="42.0" x2="41.5" y2="49.5" stroke="#E4E4E7" stroke-width="1.8"/><line x1="46.0" y1="42.0" x2="46.0" y2="49.5" stroke="#E4E4E7" stroke-width="1.8"/><line x1="50.0" y1="42.0" x2="50.0" y2="49.5" stroke="#E4E4E7" stroke-width="1.8"/><line x1="54.5" y1="42.0" x2="54.5" y2="49.5" stroke="#E4E4E7" stroke-width="1.8"/><line x1="38.5" y1="50.0" x2="57.5" y2="50.0" stroke="#E4E4E7" stroke-width="1.8" stroke-linecap="round"/><line x1="38.0" y1="52.5" x2="58.0" y2="52.5" stroke="#E4E4E7" stroke-width="1.8" stroke-linecap="round"/><text x="84" y="41" font-size="20" font-weight="700" fill="#FAFAFA">NPA-RBI Risk Engine</text><text x="84" y="58" font-size="11" font-weight="600" letter-spacing="0.8" fill="#E4E4E7">FINANCIAL RISK &amp; EXPLAINABLE AI</text><g role="img" aria-label="Repository status"><rect x="460" y="23" width="96" height="26" rx="6" fill="rgba(16,185,129,0.12)" stroke="rgba(16,185,129,0.30)" stroke-width="0.9"/><circle cx="474" cy="36" r="3" fill="#10B981"/><text x="484" y="40" font-size="11.5" font-weight="600" fill="#FAFAFA">★ 0 Stars</text></g><text x="24" y="94" font-size="13.5" font-weight="450" fill="#A1A1AA">Bank NPA early-warning risk engine combining panel</text><text x="24" y="116" font-size="13.5" font-weight="450" fill="#A1A1AA">econometrics with XGBoost &amp; SHAP scorecards</text><rect x="24" y="142" width="67" height="26" rx="7" fill="rgba(255,255,255,0.06)" stroke="rgba(255,255,255,0.16)" stroke-width="0.9"/><text x="57" y="159" text-anchor="middle" font-size="11.5" font-weight="600" fill="#E4E4E7">Python</text><rect x="98.8" y="142" width="114" height="26" rx="7" fill="rgba(255,255,255,0.06)" stroke="rgba(255,255,255,0.16)" stroke-width="0.9"/><text x="156" y="159" text-anchor="middle" font-size="11.5" font-weight="600" fill="#E4E4E7">Econometrics</text><rect x="220.39999999999998" y="142" width="75" height="26" rx="7" fill="rgba(255,255,255,0.06)" stroke="rgba(255,255,255,0.16)" stroke-width="0.9"/><text x="258" y="159" text-anchor="middle" font-size="11.5" font-weight="600" fill="#E4E4E7">XGBoost</text><rect x="303.0" y="142" width="51" height="26" rx="7" fill="rgba(255,255,255,0.06)" stroke="rgba(255,255,255,0.16)" stroke-width="0.9"/><text x="329" y="159" text-anchor="middle" font-size="11.5" font-weight="600" fill="#E4E4E7">SHAP</text><rect x="362.2" y="142" width="90" height="26" rx="7" fill="rgba(255,255,255,0.06)" stroke="rgba(255,255,255,0.16)" stroke-width="0.9"/><text x="407" y="159" text-anchor="middle" font-size="11.5" font-weight="600" fill="#E4E4E7">Streamlit</text><line x1="24" y1="184" x2="556" y2="184" stroke="rgba(255,255,255,0.08)" stroke-width="1"/><rect x="24" y="200" width="360" height="7" rx="3.5" fill="rgba(255,255,255,0.06)"/><path d="M 27.5 200 L 322.3 200 L 322.3 207 L 27.5 207 A 3.5 3.5 0 0 1 27.5 200" fill="#E4E4E7"/><path d="M 322.3 200 L 380.5 200 A 3.5 3.5 0 0 1 380.5 207 L 322.3 207 Z" fill="#A1A1AA"/><circle cx="28.0" cy="221.0" r="3.5" fill="#E4E4E7"/><text x="36.0" y="225.0" font-size="12" font-weight="500" fill="#A1A1AA">Python <tspan font-weight="700" fill="#FAFAFA">83%</tspan></text><circle cx="127.0" cy="221.0" r="3.5" fill="#A1A1AA"/><text x="135.0" y="225.0" font-size="12" font-weight="500" fill="#A1A1AA">Jupyter <tspan font-weight="700" fill="#FAFAFA">17%</tspan></text><rect x="412" y="200" width="144" height="36" rx="8" fill="rgba(255,255,255,0.06)" stroke="rgba(255,255,255,0.18)" stroke-width="1.0"/><text x="484" y="222.5" text-anchor="middle" font-size="12.5" font-weight="700" fill="#FAFAFA">Explore Repo ↗</text></g></a></svg>